<svg width="400" height="308" viewBox="0 0 400 308" fill="none" xmlns="http://www.w3.org/2000/svg">
<path d="M400 270.432H0V270.639H400V270.432Z" fill="#EBEBEB"/>
<path d="M359.922 283.723H333.426V283.929H359.922V283.723Z" fill="#EBEBEB"/>
<path d="M264.976 285.969H258.024V286.176H264.976V285.969Z" fill="#EBEBEB"/>
<path d="M332.624 276.058H317.272V276.264H332.624V276.058Z" fill="#EBEBEB"/>
<path d="M76.5198 277.445H41.9678V277.652H76.5198V277.445Z" fill="#EBEBEB"/>
<path d="M88.7105 277.445H83.6465V277.652H88.7105V277.445Z" fill="#EBEBEB"/>
<path d="M180.12 280.931H105.176V281.137H180.12V280.931Z" fill="#EBEBEB"/>
<path d="M189.601 233.593H35.1293C33.9192 233.591 32.7594 233.093 31.9044 232.208C31.0495 231.324 30.5693 230.126 30.5693 228.876V4.67516C30.5799 3.43288 31.0647 2.24505 31.9185 1.36969C32.7723 0.494326 33.9261 0.0021281 35.1293 0H189.601C190.813 0 191.975 0.496911 192.831 1.38142C193.688 2.26593 194.169 3.46558 194.169 4.71646V228.876C194.169 230.127 193.688 231.327 192.831 232.211C191.975 233.096 190.813 233.593 189.601 233.593ZM35.1293 0.165201C33.9723 0.167389 32.8633 0.643508 32.0459 1.48905C31.2284 2.3346 30.7693 3.48047 30.7693 4.67516V228.876C30.7693 230.071 31.2284 231.217 32.0459 232.062C32.8633 232.908 33.9723 233.384 35.1293 233.386H189.601C190.759 233.384 191.869 232.908 192.688 232.063C193.506 231.218 193.967 230.072 193.969 228.876V4.67516C193.967 3.47971 193.506 2.33386 192.688 1.48855C191.869 0.643239 190.759 0.167384 189.601 0.165201H35.1293Z" fill="#EBEBEB"/>
<path d="M362.648 233.593H208.168C206.957 233.591 205.796 233.093 204.94 232.209C204.084 231.325 203.602 230.127 203.6 228.876V4.67516C203.612 3.43212 204.099 2.24431 204.954 1.36917C205.809 0.494038 206.964 0.00210489 208.168 0H362.648C363.849 0.00429891 365.001 0.497458 365.853 1.37259C366.705 2.24772 367.189 3.4343 367.2 4.67516V228.876C367.2 230.124 366.721 231.322 365.867 232.206C365.014 233.09 363.856 233.588 362.648 233.593ZM208.168 0.165201C207.01 0.167384 205.9 0.643239 205.081 1.48855C204.263 2.33386 203.802 3.47971 203.8 4.67516V228.876C203.802 230.072 204.263 231.218 205.081 232.063C205.9 232.908 207.01 233.384 208.168 233.386H362.648C363.805 233.384 364.915 232.908 365.734 232.063C366.553 231.218 367.013 230.072 367.016 228.876V4.67516C367.013 3.47971 366.553 2.33386 365.734 1.48855C364.915 0.643239 363.805 0.167384 362.648 0.165201H208.168Z" fill="#EBEBEB"/>
<path d="M151.984 60.4797H52.1602V166.976H151.984V60.4797Z" fill="#EBEBEB"/>
<path d="M155.472 60.4797H55.6484V166.976H155.472V60.4797Z" fill="#F0F0F0"/>
<path d="M152.822 62.999H58.1582V164.498H152.822V62.999Z" fill="#E0E0E0"/>
<path d="M150.454 62.999H58.1582V164.498H150.454V62.999Z" fill="#F5F5F5"/>
<path d="M105.266 62.999H103.394V164.498H105.266V62.999Z" fill="#EBEBEB"/>
<path d="M92.6015 62.999L66.2975 164.498H63.7695L90.0735 62.999H92.6015Z" fill="white"/>
<path d="M106.072 61.438H104.464V166.447H106.072V61.438Z" fill="#F0F0F0"/>
<path d="M83.0462 62.999L58.1582 159.055V106.257L69.3662 62.999H83.0462Z" fill="white"/>
<path d="M150.456 72.209V81.9558L129.064 164.498H126.536L150.456 72.209Z" fill="white"/>
<path d="M150.456 91.8843V144.682L145.328 164.498H131.64L150.456 91.8843Z" fill="white"/>
<path d="M135.431 199.892H145.599V199.19C145.599 197.827 144.111 196.712 142.343 196.811L138.343 196.976C136.743 197.051 135.431 198.091 135.431 199.355V199.892Z" fill="#F0F0F0"/>
<path d="M155.497 200.231H168.905L171.041 180.894C171.025 180.546 170.88 180.217 170.635 179.976C170.391 179.734 170.067 179.599 169.729 179.597H160.745C160.407 179.597 160.081 179.732 159.837 179.973C159.592 180.215 159.448 180.545 159.433 180.894L155.497 200.231Z" fill="#E6E6E6"/>
<path d="M135.031 151.158H138.399L142.167 187.667H138.815C138.544 187.666 138.281 187.566 138.073 187.384C137.866 187.203 137.726 186.953 137.679 186.676L134.135 152.24C134.11 152.106 134.114 151.967 134.148 151.835C134.182 151.702 134.244 151.58 134.33 151.476C134.416 151.372 134.524 151.289 134.646 151.234C134.767 151.179 134.899 151.153 135.031 151.158Z" fill="#E6E6E6"/>
<path d="M140.208 187.692H190.4C190.528 187.694 190.655 187.668 190.773 187.615C190.89 187.562 190.995 187.483 191.08 187.384C191.165 187.285 191.229 187.169 191.266 187.042C191.303 186.916 191.314 186.782 191.296 186.651L187.752 152.215C187.716 151.935 187.584 151.677 187.381 151.487C187.177 151.298 186.914 151.19 186.64 151.183H136.448C136.32 151.179 136.194 151.204 136.076 151.256C135.959 151.308 135.854 151.386 135.769 151.485C135.683 151.583 135.62 151.699 135.582 151.825C135.545 151.951 135.535 152.085 135.552 152.215L139.096 186.676C139.137 186.953 139.271 187.206 139.474 187.392C139.677 187.577 139.937 187.684 140.208 187.692Z" fill="#EBEBEB"/>
<path d="M141.144 184.314H188.456C188.567 184.314 188.677 184.291 188.779 184.245C188.881 184.198 188.973 184.131 189.048 184.046C189.124 183.961 189.181 183.861 189.217 183.752C189.252 183.643 189.266 183.528 189.256 183.413L186.16 153.372C186.131 153.125 186.017 152.898 185.839 152.731C185.662 152.565 185.432 152.469 185.192 152.463H137.864C137.751 152.463 137.64 152.486 137.538 152.533C137.435 152.579 137.343 152.648 137.268 152.734C137.192 152.819 137.135 152.92 137.1 153.03C137.065 153.14 137.052 153.257 137.064 153.372L140.16 183.413C140.191 183.661 140.307 183.888 140.488 184.054C140.669 184.219 140.902 184.312 141.144 184.314Z" fill="#FAFAFA"/>
<path d="M154.992 198.727H171.488C171.681 198.727 171.866 198.806 172.002 198.947C172.139 199.088 172.216 199.28 172.216 199.479C172.216 199.678 172.139 199.869 172.002 200.01C171.866 200.151 171.681 200.231 171.488 200.231H154.992C154.799 200.231 154.613 200.151 154.477 200.01C154.34 199.869 154.264 199.678 154.264 199.479C154.264 199.28 154.34 199.088 154.477 198.947C154.613 198.806 154.799 198.727 154.992 198.727Z" fill="#E6E6E6"/>
<path d="M114.377 206.161H155.217V199.801H114.377V206.161Z" fill="#E6E6E6"/>
<path d="M228.184 270.845H229.2C229.231 270.845 229.261 270.839 229.289 270.827C229.317 270.815 229.343 270.797 229.364 270.775C229.386 270.753 229.403 270.726 229.415 270.697C229.426 270.668 229.432 270.637 229.432 270.606L231.032 206.178H226.32L227.92 270.606C227.922 270.639 227.931 270.672 227.945 270.703C227.96 270.733 227.98 270.76 228.004 270.782C228.029 270.804 228.057 270.821 228.088 270.832C228.119 270.843 228.152 270.848 228.184 270.845Z" fill="#E6E6E6"/>
<path d="M264.535 270.845H266.887L260.239 206.153H255.527L264.535 270.845Z" fill="#F0F0F0"/>
<path d="M112.783 270.845L121.807 206.153H117.103L110.447 270.845H112.783Z" fill="#E6E6E6"/>
<path d="M143.568 206.161L262.96 206.161V199.801L143.568 199.801V206.161Z" fill="#F5F5F5"/>
<path d="M147.294 270.845H149.998L150.998 206.153H146.294L147.294 270.845Z" fill="#F0F0F0"/>
<path d="M185.433 198.653H186.689C186.752 198.651 186.812 198.624 186.856 198.578C186.901 198.532 186.927 198.47 186.929 198.405V197.042C186.929 197.01 186.923 196.977 186.911 196.947C186.899 196.917 186.881 196.89 186.859 196.867C186.836 196.844 186.81 196.826 186.781 196.813C186.752 196.801 186.72 196.794 186.689 196.794H185.785C185.733 196.795 185.683 196.813 185.643 196.846C185.602 196.879 185.573 196.924 185.561 196.976L185.209 198.339C185.199 198.375 185.198 198.413 185.204 198.45C185.211 198.487 185.225 198.522 185.247 198.552C185.269 198.582 185.297 198.607 185.329 198.625C185.361 198.642 185.397 198.652 185.433 198.653Z" fill="#F5F5F5"/>
<path d="M183.705 198.653H184.961C185.024 198.651 185.083 198.624 185.126 198.577C185.169 198.531 185.193 198.469 185.193 198.405V197.042C185.194 197.01 185.189 196.978 185.178 196.948C185.167 196.918 185.15 196.891 185.128 196.867C185.107 196.844 185.081 196.826 185.052 196.813C185.023 196.801 184.992 196.794 184.961 196.794H184.057C184.006 196.795 183.956 196.813 183.915 196.846C183.874 196.879 183.846 196.924 183.833 196.976L183.473 198.339C183.465 198.376 183.465 198.414 183.472 198.451C183.48 198.488 183.495 198.522 183.518 198.552C183.54 198.582 183.568 198.607 183.601 198.624C183.633 198.642 183.669 198.651 183.705 198.653Z" fill="#F5F5F5"/>
<path d="M181.977 198.653H183.201C183.263 198.651 183.322 198.624 183.365 198.577C183.409 198.531 183.433 198.469 183.433 198.405V197.042C183.434 197.01 183.429 196.978 183.417 196.948C183.406 196.918 183.389 196.891 183.368 196.867C183.346 196.844 183.32 196.826 183.291 196.813C183.263 196.801 183.232 196.794 183.201 196.794H182.297C182.244 196.796 182.194 196.814 182.152 196.846C182.11 196.879 182.08 196.924 182.065 196.976L181.713 198.339C181.704 198.379 181.704 198.42 181.713 198.459C181.723 198.499 181.741 198.535 181.767 198.566C181.793 198.597 181.825 198.62 181.862 198.636C181.898 198.651 181.938 198.657 181.977 198.653Z" fill="#F5F5F5"/>
<path d="M180.248 198.653H181.496C181.559 198.653 181.62 198.627 181.665 198.581C181.71 198.534 181.736 198.471 181.736 198.405V197.042C181.737 197.01 181.731 196.977 181.72 196.946C181.708 196.916 181.69 196.888 181.668 196.865C181.645 196.841 181.618 196.823 181.589 196.811C181.559 196.799 181.527 196.793 181.496 196.795H180.6C180.547 196.796 180.497 196.814 180.455 196.847C180.413 196.879 180.383 196.925 180.368 196.976L180.016 198.339C180.006 198.376 180.004 198.415 180.011 198.452C180.018 198.49 180.034 198.525 180.056 198.556C180.079 198.586 180.107 198.611 180.141 198.628C180.174 198.644 180.21 198.653 180.248 198.653Z" fill="#F5F5F5"/>
<path d="M178.519 198.653H179.767C179.831 198.653 179.892 198.627 179.937 198.581C179.982 198.534 180.007 198.471 180.007 198.405V197.042C180.008 197.01 180.003 196.977 179.991 196.946C179.979 196.916 179.962 196.888 179.939 196.865C179.917 196.841 179.89 196.823 179.86 196.811C179.831 196.799 179.799 196.793 179.767 196.795H178.871C178.818 196.794 178.767 196.812 178.725 196.845C178.683 196.878 178.653 196.924 178.639 196.976L178.287 198.339C178.277 198.376 178.276 198.415 178.283 198.452C178.29 198.49 178.305 198.525 178.328 198.556C178.35 198.586 178.379 198.611 178.412 198.628C178.445 198.644 178.482 198.653 178.519 198.653Z" fill="#F5F5F5"/>
<path d="M176.801 198.653H178.049C178.081 198.653 178.112 198.647 178.141 198.634C178.17 198.622 178.197 198.604 178.219 198.581C178.241 198.557 178.259 198.53 178.271 198.5C178.283 198.47 178.289 198.438 178.289 198.405V197.042C178.29 197.01 178.285 196.977 178.273 196.946C178.262 196.916 178.244 196.888 178.221 196.865C178.199 196.841 178.172 196.823 178.142 196.811C178.113 196.799 178.081 196.793 178.049 196.795H177.153C177.101 196.794 177.049 196.812 177.007 196.845C176.966 196.878 176.935 196.924 176.921 196.976L176.569 198.339C176.559 198.376 176.558 198.415 176.565 198.452C176.572 198.49 176.587 198.525 176.61 198.556C176.632 198.586 176.661 198.611 176.694 198.628C176.728 198.644 176.764 198.653 176.801 198.653Z" fill="#F5F5F5"/>
<path d="M175.065 198.653H176.313C176.377 198.653 176.438 198.627 176.483 198.581C176.528 198.534 176.553 198.471 176.553 198.405V197.042C176.554 197.01 176.549 196.977 176.537 196.946C176.525 196.916 176.508 196.888 176.485 196.865C176.463 196.841 176.436 196.823 176.406 196.811C176.376 196.799 176.345 196.793 176.313 196.795H175.417C175.364 196.793 175.312 196.81 175.27 196.843C175.228 196.876 175.198 196.923 175.185 196.976L174.833 198.339C174.823 198.376 174.822 198.415 174.829 198.452C174.836 198.49 174.851 198.525 174.873 198.556C174.896 198.586 174.925 198.611 174.958 198.628C174.991 198.644 175.028 198.653 175.065 198.653Z" fill="#F5F5F5"/>
<path d="M173.335 198.653H174.583C174.646 198.651 174.706 198.624 174.751 198.578C174.795 198.532 174.821 198.47 174.823 198.405V197.042C174.823 197.01 174.817 196.978 174.805 196.947C174.793 196.917 174.775 196.89 174.753 196.867C174.731 196.844 174.704 196.826 174.675 196.813C174.646 196.801 174.615 196.795 174.583 196.795H173.687C173.634 196.793 173.583 196.81 173.54 196.843C173.498 196.876 173.468 196.923 173.455 196.976L173.103 198.339C173.094 198.376 173.092 198.415 173.099 198.452C173.106 198.49 173.121 198.525 173.144 198.556C173.166 198.586 173.195 198.611 173.229 198.628C173.262 198.644 173.298 198.653 173.335 198.653Z" fill="#F5F5F5"/>
<path d="M171.598 198.653H172.854C172.917 198.651 172.977 198.624 173.022 198.578C173.066 198.532 173.092 198.47 173.094 198.405V197.042C173.094 197.01 173.088 196.978 173.076 196.947C173.064 196.917 173.046 196.89 173.024 196.867C173.002 196.844 172.975 196.826 172.946 196.813C172.917 196.801 172.886 196.795 172.854 196.795H171.998C171.945 196.793 171.893 196.81 171.851 196.843C171.809 196.876 171.779 196.923 171.766 196.976L171.414 198.339C171.405 198.372 171.402 198.407 171.406 198.441C171.411 198.476 171.422 198.509 171.439 198.538C171.456 198.568 171.479 198.593 171.507 198.613C171.534 198.633 171.565 198.646 171.598 198.653Z" fill="#F5F5F5"/>
<path d="M169.872 198.653H171.128C171.191 198.651 171.251 198.624 171.296 198.578C171.34 198.532 171.366 198.47 171.368 198.405V197.042C171.368 197.01 171.362 196.977 171.35 196.947C171.338 196.917 171.32 196.89 171.298 196.867C171.276 196.844 171.249 196.826 171.22 196.813C171.191 196.801 171.16 196.794 171.128 196.794H170.224C170.173 196.795 170.123 196.813 170.082 196.846C170.041 196.879 170.013 196.924 170 196.976L169.64 198.339C169.632 198.376 169.632 198.414 169.639 198.451C169.647 198.488 169.662 198.522 169.685 198.552C169.707 198.582 169.735 198.607 169.768 198.624C169.8 198.642 169.836 198.651 169.872 198.653Z" fill="#F5F5F5"/>
<path d="M168.145 198.653H169.401C169.463 198.651 169.522 198.624 169.565 198.577C169.609 198.531 169.633 198.469 169.633 198.405V197.042C169.634 197.01 169.629 196.978 169.617 196.948C169.606 196.918 169.589 196.891 169.568 196.867C169.546 196.844 169.52 196.826 169.491 196.813C169.463 196.801 169.432 196.794 169.401 196.794H168.497C168.444 196.796 168.394 196.814 168.352 196.846C168.31 196.879 168.28 196.924 168.265 196.976L167.913 198.339C167.904 198.376 167.904 198.414 167.912 198.451C167.919 198.488 167.935 198.522 167.957 198.552C167.979 198.582 168.008 198.607 168.04 198.624C168.072 198.642 168.108 198.651 168.145 198.653Z" fill="#F5F5F5"/>
<path d="M166.399 198.653H167.647C167.711 198.653 167.772 198.627 167.817 198.581C167.862 198.534 167.887 198.471 167.887 198.405V197.042C167.888 197.01 167.883 196.977 167.871 196.946C167.859 196.916 167.842 196.888 167.819 196.865C167.797 196.841 167.77 196.823 167.74 196.811C167.71 196.799 167.679 196.793 167.647 196.795H166.751C166.699 196.796 166.648 196.814 166.606 196.847C166.565 196.879 166.534 196.925 166.519 196.976L166.167 198.339C166.157 198.376 166.156 198.415 166.163 198.452C166.17 198.49 166.185 198.525 166.207 198.556C166.23 198.586 166.259 198.611 166.292 198.628C166.325 198.644 166.362 198.653 166.399 198.653Z" fill="#F5F5F5"/>
<path d="M164.689 198.653H165.937C166.001 198.653 166.062 198.627 166.107 198.581C166.152 198.534 166.177 198.471 166.177 198.405V197.042C166.178 197.01 166.173 196.977 166.161 196.946C166.149 196.916 166.132 196.888 166.109 196.865C166.087 196.841 166.06 196.823 166.03 196.811C166 196.799 165.969 196.793 165.937 196.795H165.041C164.989 196.796 164.938 196.814 164.896 196.847C164.855 196.879 164.824 196.925 164.809 196.976L164.457 198.339C164.447 198.376 164.446 198.415 164.453 198.452C164.46 198.49 164.475 198.525 164.497 198.556C164.52 198.586 164.549 198.611 164.582 198.628C164.615 198.644 164.652 198.653 164.689 198.653Z" fill="#F5F5F5"/>
<path d="M162.96 198.653H164.208C164.272 198.653 164.333 198.627 164.378 198.581C164.423 198.534 164.448 198.471 164.448 198.405V197.042C164.45 197.01 164.444 196.977 164.432 196.946C164.421 196.916 164.403 196.888 164.381 196.865C164.358 196.841 164.331 196.823 164.302 196.811C164.272 196.799 164.24 196.793 164.208 196.795H163.312C163.26 196.794 163.209 196.812 163.167 196.845C163.125 196.878 163.094 196.924 163.08 196.976L162.728 198.339C162.719 198.376 162.717 198.415 162.724 198.452C162.731 198.49 162.746 198.525 162.769 198.556C162.791 198.586 162.82 198.611 162.854 198.628C162.887 198.644 162.923 198.653 162.96 198.653Z" fill="#F5F5F5"/>
<path d="M161.231 198.653H162.479C162.542 198.653 162.603 198.627 162.648 198.581C162.693 198.534 162.719 198.471 162.719 198.405V197.042C162.72 197.01 162.714 196.977 162.703 196.946C162.691 196.916 162.673 196.888 162.651 196.865C162.628 196.841 162.601 196.823 162.572 196.811C162.542 196.799 162.511 196.793 162.479 196.795H161.599C161.546 196.793 161.494 196.81 161.452 196.843C161.409 196.876 161.379 196.923 161.367 196.976L161.015 198.339C161.005 198.375 161.003 198.412 161.009 198.448C161.016 198.485 161.03 198.519 161.05 198.549C161.071 198.579 161.098 198.604 161.129 198.622C161.16 198.64 161.195 198.651 161.231 198.653Z" fill="#F5F5F5"/>
<path d="M159.968 199.875H187.944V197.728H159.968V199.875Z" fill="#EBEBEB"/>
<path d="M341.352 146.764V43.051L212.088 43.051V146.764H341.352Z" fill="#E0E0E0"/>
<path d="M213.88 144.913L339.56 144.913V44.9012L213.88 44.9012V144.913Z" fill="#EBEBEB"/>
<path d="M274.606 62.9658V76.917" stroke="#E0E0E0" stroke-miterlimit="10"/>
<path d="M243.896 121.81V76.917H300.904V102.663" stroke="#E0E0E0" stroke-miterlimit="10"/>
<path d="M286.151 116.375V102.664H317.495V116.854" stroke="#E0E0E0" stroke-miterlimit="10"/>
<path d="M289.024 57.8447H260.192V68.0954H289.024V57.8447Z" fill="#F5F5F5"/>
<path d="M315.073 82.4348H287.593V93.5693H315.073V82.4348Z" fill="#F5F5F5"/>
<path d="M295.592 110.635H276.72V122.116H295.592V110.635Z" fill="#F5F5F5"/>
<path d="M327.607 112.493H307.391V121.215H327.607V112.493Z" fill="#F5F5F5"/>
<path d="M261.858 84.7888H230.634V99.6651H261.858V84.7888Z" fill="#F5F5F5"/>
<path d="M253.863 116.375H233.927V127.245H253.863V116.375Z" fill="#F5F5F5"/>
<path d="M278.921 77.28L274.616 72.8352L270.311 77.28L274.616 81.7248L278.921 77.28Z" fill="#F5F5F5"/>
<path d="M305.215 102.67L300.91 98.2256L296.605 102.67L300.91 107.115L305.215 102.67Z" fill="#F5F5F5"/>
<path d="M124.889 252.673C125.025 252.387 125.091 252.071 125.083 251.753C125.075 251.434 124.993 251.123 124.842 250.844C124.692 250.566 124.479 250.329 124.221 250.154C123.963 249.979 123.668 249.872 123.361 249.84C123.623 249.027 123.639 248.151 123.407 247.328C123.176 246.504 122.708 245.773 122.065 245.231C121.911 245.084 121.714 244.994 121.505 244.975C121.28 245.001 121.068 245.096 120.897 245.248L117.329 247.899C117.039 248.08 116.795 248.329 116.617 248.626C115.881 250.088 118.521 251.93 117.417 253.169C117.113 253.516 116.617 253.59 116.217 253.838C115.369 254.383 115.265 255.589 114.873 256.547C114.481 257.506 113.089 258.199 112.561 257.373C112.953 256.457 111.761 255.672 110.809 255.556C109.857 255.441 108.849 255.383 108.313 254.458C106.953 255.688 103.905 252.252 103.977 250.873C103.439 250.973 102.945 251.244 102.563 251.648C102.182 252.053 101.932 252.57 101.849 253.128C101.689 254.268 101.648 255.423 101.729 256.572C101.729 258.811 100.993 261.008 101.033 263.246C101.033 264.989 101.713 266.922 103.265 267.624C104.033 267.909 104.851 268.021 105.665 267.954L123.265 267.839C123.689 267.873 124.115 267.799 124.505 267.624C125.305 267.195 125.465 266.121 125.537 265.204C125.857 261.256 126.171 257.307 126.481 253.359L124.889 252.673Z" fill="#E0E0E0"/>
<path d="M125.919 233.477H98.623L98.847 236.318L99.007 238.35L99.423 243.645L99.655 246.685L99.975 250.732L100.111 252.467V252.987L100.271 255.019L100.487 257.819L100.623 259.554L100.767 261.313L100.927 263.353L101.047 264.898L101.183 266.633L101.239 267.384H126.295L126.351 266.633L126.487 264.906L126.607 263.345L126.767 261.305L126.911 259.554L127.047 257.819L127.263 255.019L127.423 252.987V252.467L127.559 250.732L127.879 246.685L128.111 243.653L128.527 238.35L128.687 236.318L128.911 233.477H125.919ZM127.519 235.344L126.991 234.799H127.567L127.519 235.344ZM127.383 237.07L127.335 237.756L124.887 240.283L122.087 237.384L124.591 234.799H125.183L127.383 237.07ZM126.679 246.09L124.887 247.94L122.087 245.041L124.887 242.158L126.831 244.157L126.679 246.09ZM100.703 244.157L102.639 242.158L105.439 245.041L102.639 247.94L100.855 246.09L100.703 244.157ZM123.999 241.192L121.199 244.083L118.399 241.192L121.199 238.293L123.999 241.192ZM119.599 234.774H122.799L121.199 236.426L119.599 234.774ZM120.287 245.016L117.495 247.916L114.687 245.016L117.495 242.134L120.287 245.016ZM110.983 248.849L113.783 245.958L116.583 248.849L113.783 251.74L110.983 248.849ZM112.871 252.673L110.071 255.564L107.271 252.682L110.079 249.782L112.871 252.673ZM117.495 249.782L120.287 252.682L117.495 255.564L114.687 252.673L117.495 249.782ZM113.783 244.083L110.983 241.192L113.783 238.293L116.583 241.192L113.783 244.083ZM112.871 245.016L110.079 247.916L107.271 245.016L110.079 242.134L112.871 245.016ZM106.399 244.108L103.607 241.217L106.399 238.317L109.207 241.217L106.399 244.108ZM106.399 245.983L109.207 248.874L106.399 251.765L103.607 248.874L106.399 245.983ZM109.207 256.531L106.399 259.422L103.607 256.531L106.399 253.64L109.207 256.531ZM110.111 257.464L112.911 260.363L110.119 263.254L107.311 260.363L110.111 257.464ZM111.023 256.531L113.823 253.64L116.623 256.531L113.823 259.422L111.023 256.531ZM117.535 257.464L120.327 260.363L117.535 263.254L114.727 260.363L117.535 257.464ZM121.239 261.297L124.039 264.188L122.223 266.063H120.247L118.399 264.188L121.239 261.297ZM118.439 256.531L121.239 253.64L124.039 256.531L121.239 259.422L118.439 256.531ZM118.439 248.874L121.239 245.983L124.039 248.874L121.239 251.765L118.439 248.874ZM120.327 237.384L117.535 240.283L114.727 237.384L117.239 234.799H117.823L120.327 237.384ZM113.823 236.451L112.223 234.799H115.423L113.823 236.451ZM112.911 237.384L110.119 240.283L107.311 237.384L109.823 234.799H110.399L112.911 237.384ZM107.999 234.799L106.399 236.451L104.799 234.799H107.999ZM102.983 234.799L105.487 237.384L102.687 240.283L100.287 237.756L100.239 237.07L102.431 234.799H102.983ZM100.583 234.799L100.063 235.336V234.799H100.583ZM100.407 239.796L101.783 241.217L100.615 242.423L100.407 239.796ZM101.207 249.501L101.095 248.13L101.815 248.874L101.207 249.501ZM101.343 251.244L102.719 249.807L105.519 252.706L102.719 255.589L101.551 254.408L101.343 251.244ZM101.759 256.589V256.465L101.823 256.531L101.767 256.589H101.759ZM102.247 262.759L101.895 258.323L102.695 257.497L105.495 260.396L102.695 263.279L102.223 262.792L102.247 262.759ZM102.503 266.063L102.447 265.402L102.719 265.121L103.631 266.063H102.503ZM103.631 264.188L106.423 261.297L109.231 264.188L107.415 266.063H105.439L103.631 264.188ZM109.231 266.063L110.143 265.121L111.055 266.063H109.231ZM112.863 266.063L111.047 264.188L113.847 261.297L116.647 264.188L114.839 266.063H112.863ZM116.647 266.063L117.519 265.146L118.423 266.088L116.647 266.063ZM125.191 266.063H123.999L124.903 265.121L125.175 265.402L125.191 266.063ZM125.447 262.759L124.967 263.246L122.167 260.363L124.967 257.464L125.767 258.29L125.447 262.759ZM125.943 256.456V256.589L125.879 256.531L125.951 256.456H125.943ZM126.103 254.424L124.967 255.589L122.167 252.706L124.967 249.807L126.359 251.244L126.103 254.424ZM126.487 249.51L125.871 248.874L126.599 248.13L126.487 249.51ZM127.287 239.788L127.079 242.431L125.831 241.192L127.199 239.788H127.287Z" fill="#E6E6E6"/>
<path d="M98.1931 235.972H129.433C130.158 235.972 130.745 235.365 130.745 234.617V233.642C130.745 232.894 130.158 232.288 129.433 232.288H98.1931C97.4685 232.288 96.8811 232.894 96.8811 233.642V234.617C96.8811 235.365 97.4685 235.972 98.1931 235.972Z" fill="#F0F0F0"/>
<path d="M126.985 265.402H100.625C99.9009 265.402 99.3135 266.009 99.3135 266.757V267.731C99.3135 268.48 99.9009 269.086 100.625 269.086H126.985C127.71 269.086 128.297 268.48 128.297 267.731V266.757C128.297 266.009 127.71 265.402 126.985 265.402Z" fill="#F0F0F0"/>
<path d="M324.361 240.225L332.865 214.917C332.865 214.917 321.073 223.945 321.153 213.934C321.233 203.923 326.521 211.695 328.353 208.003C330.185 204.311 323.121 204.344 325.601 198.736C328.081 193.127 335.137 201.742 336.377 196.778C337.617 191.814 339.577 189.278 344.745 189.724C344.745 189.724 347.521 196.266 344.121 200.982C340.721 205.699 352.537 201.924 351.321 206.673C350.105 211.423 346.169 215.569 344.433 212.224C342.697 208.879 340.489 215.289 343.465 216.941C346.441 218.593 339.577 225.746 338.073 221.996C337.027 219.502 335.735 217.127 334.217 214.909L326.401 242.018L324.361 240.225Z" fill="#EBEBEB"/>
<path d="M315.599 240.449L305.999 224.267C305.999 224.267 315.479 228.67 313.999 221.789C312.519 214.909 309.951 221.079 308.135 218.807C306.319 216.536 311.223 215.462 308.687 211.968C306.151 208.474 302.527 215.536 300.943 212.29C299.359 209.044 297.607 207.615 294.119 208.722C294.119 208.722 293.151 213.678 296.199 216.412C299.247 219.146 290.511 218.378 292.039 221.475C293.567 224.573 296.903 226.828 297.639 224.243C298.375 221.657 300.839 225.746 299.007 227.357C297.175 228.967 303.007 232.841 303.471 230.008C303.818 228.122 304.354 226.278 305.071 224.507L314.439 242.018L315.599 240.449Z" fill="#E6E6E6"/>
<path d="M322.055 240.606L317.663 214.529C317.663 214.529 327.775 225.267 329.239 215.503C330.703 205.74 324.343 212.439 323.119 208.532C321.895 204.625 328.783 205.823 327.231 199.95C325.679 194.077 317.471 201.313 317.023 196.266C316.575 191.219 315.031 188.427 309.951 188.006C309.951 188.006 306.239 193.92 308.831 199.083C311.423 204.245 300.479 198.612 300.919 203.444C301.359 208.276 304.567 212.959 306.775 209.986C308.983 207.012 310.151 213.62 306.999 214.744C303.847 215.867 309.399 223.962 311.471 220.526C312.873 218.264 314.501 216.16 316.327 214.248L319.799 242.018L322.055 240.606Z" fill="#F5F5F5"/>
<path d="M327.496 269.92H312.424C311.916 269.919 311.428 269.719 311.058 269.36C310.688 269.001 310.464 268.511 310.432 267.988L308.832 241.143C308.815 240.862 308.855 240.581 308.947 240.317C309.04 240.053 309.184 239.812 309.371 239.607C309.558 239.403 309.783 239.24 310.033 239.129C310.282 239.018 310.552 238.961 310.824 238.962H329.088C329.36 238.961 329.629 239.018 329.879 239.129C330.129 239.24 330.354 239.403 330.54 239.607C330.727 239.812 330.871 240.053 330.964 240.317C331.057 240.581 331.096 240.862 331.08 241.143L329.48 267.988C329.449 268.51 329.227 269.001 328.858 269.36C328.49 269.719 328.003 269.919 327.496 269.92Z" fill="#EBEBEB"/>
<path d="M330.888 242.018H308.8C308.311 242.017 307.84 241.831 307.475 241.494C307.111 241.157 306.879 240.694 306.824 240.192C306.79 239.904 306.816 239.611 306.9 239.333C306.983 239.055 307.123 238.799 307.31 238.581C307.497 238.364 307.726 238.189 307.983 238.07C308.24 237.95 308.518 237.888 308.8 237.888H330.856C331.137 237.888 331.415 237.95 331.672 238.069C331.928 238.188 332.158 238.362 332.345 238.578C332.532 238.795 332.673 239.05 332.758 239.327C332.844 239.603 332.872 239.896 332.84 240.184C332.787 240.683 332.56 241.145 332.2 241.483C331.841 241.82 331.374 242.011 330.888 242.018Z" fill="#F5F5F5"/>
<path d="M237.135 227.39H194.735V225.829C194.735 224.733 195.156 223.683 195.906 222.908C196.656 222.134 197.674 221.699 198.735 221.699H233.135C234.196 221.699 235.213 222.134 235.963 222.908C236.713 223.683 237.135 224.733 237.135 225.829V227.39Z" fill="#E0E0E0"/>
<path d="M235.753 259.802L222.153 258.422V238.714H216.801V258.431L203.153 259.818C202.497 259.882 201.888 260.196 201.444 260.698C201 261.201 200.754 261.856 200.753 262.536V264.642H238.161V262.536C238.164 261.852 237.918 261.191 237.472 260.685C237.026 260.179 236.413 259.864 235.753 259.802Z" fill="#E0E0E0"/>
<path d="M205.697 267.244C205.697 267.963 205.491 268.665 205.104 269.263C204.717 269.861 204.167 270.327 203.524 270.602C202.881 270.877 202.173 270.949 201.491 270.809C200.808 270.668 200.181 270.322 199.688 269.814C199.196 269.306 198.861 268.658 198.725 267.953C198.589 267.248 198.659 266.517 198.925 265.853C199.192 265.189 199.643 264.621 200.222 264.222C200.8 263.823 201.481 263.61 202.177 263.61C203.111 263.61 204.006 263.993 204.666 264.674C205.326 265.356 205.697 266.28 205.697 267.244Z" fill="#E0E0E0"/>
<path d="M233.186 267.244C233.186 267.963 233.392 268.665 233.779 269.263C234.166 269.861 234.715 270.327 235.358 270.602C236.002 270.877 236.709 270.949 237.392 270.809C238.075 270.668 238.702 270.322 239.195 269.814C239.687 269.306 240.022 268.658 240.158 267.953C240.294 267.248 240.224 266.517 239.958 265.853C239.691 265.189 239.24 264.621 238.661 264.222C238.082 263.823 237.402 263.61 236.706 263.61C235.772 263.61 234.877 263.993 234.217 264.674C233.556 265.356 233.186 266.28 233.186 267.244Z" fill="#E0E0E0"/>
<path d="M215.847 225.374H223.087V239.54C223.087 240.445 222.739 241.313 222.119 241.952C221.499 242.592 220.659 242.952 219.783 242.952H219.151C218.274 242.952 217.434 242.592 216.814 241.952C216.195 241.313 215.847 240.445 215.847 239.54V225.374Z" fill="#E6E6E6"/>
<path d="M212.311 222.062C216.421 205.233 218.768 187.998 219.311 170.652C219.379 168.785 220.146 167.019 221.45 165.725C222.754 164.431 224.494 163.71 226.303 163.713H238.839C240.689 163.711 242.465 164.466 243.777 165.813C245.089 167.16 245.83 168.989 245.839 170.899C245.887 182.695 245.095 206.806 238.639 226.407L214.783 225.498C214.385 225.484 213.994 225.378 213.641 225.187C213.288 224.997 212.982 224.726 212.744 224.396C212.506 224.065 212.344 223.684 212.269 223.28C212.194 222.876 212.208 222.459 212.311 222.062Z" fill="#EBEBEB"/>
<path d="M215.689 225.093C220.029 207.553 222.548 189.585 223.201 171.494C223.266 169.772 223.974 168.142 225.178 166.948C226.382 165.754 227.988 165.089 229.657 165.093H241.201C242.905 165.09 244.54 165.784 245.749 167.022C246.959 168.26 247.645 169.942 247.657 171.701C247.705 182.587 246.969 206.996 241.025 225.077L215.689 225.093Z" fill="#E6E6E6"/>
<path d="M220.647 207.896C220.647 207.896 206.903 205.03 193.631 206.417C180.359 207.805 199.871 225.713 199.871 225.713H202.615C202.615 225.713 192.271 214.355 192.847 211.53C193.423 208.705 219.463 212.431 219.463 212.431L220.647 207.896Z" fill="#E6E6E6"/>
<path d="M241.024 225.093H218.512C222.852 207.553 225.37 189.585 226.024 171.494C226.076 169.769 226.78 168.134 227.985 166.937C229.19 165.741 230.8 165.079 232.472 165.093H241.2C242.904 165.09 244.539 165.784 245.75 167.022C246.961 168.26 247.649 169.941 247.664 171.701C247.704 182.596 246.968 207.012 241.024 225.093Z" fill="#E0E0E0"/>
<path d="M194.585 224.54H240.105C240.286 224.54 240.465 224.577 240.632 224.648C240.799 224.719 240.95 224.824 241.078 224.956C241.206 225.088 241.307 225.244 241.376 225.417C241.446 225.589 241.481 225.774 241.481 225.961C241.481 226.338 241.336 226.7 241.079 226.968C240.821 227.236 240.471 227.387 240.105 227.39H194.585C194.218 227.39 193.866 227.239 193.607 226.971C193.347 226.703 193.201 226.34 193.201 225.961C193.201 225.773 193.237 225.588 193.307 225.415C193.376 225.242 193.478 225.085 193.607 224.953C193.736 224.821 193.888 224.716 194.056 224.646C194.224 224.575 194.404 224.539 194.585 224.54Z" fill="#E0E0E0"/>
<path d="M200.001 307.735C285.667 307.735 355.113 303.548 355.113 298.384C355.113 293.22 285.667 289.034 200.001 289.034C114.335 289.034 44.8887 293.22 44.8887 298.384C44.8887 303.548 114.335 307.735 200.001 307.735Z" fill="#F5F5F5"/>
<path d="M219.249 32.4204V293.536C219.249 294.042 219.152 294.543 218.962 295.009C218.773 295.476 218.496 295.899 218.147 296.255C217.797 296.61 217.383 296.89 216.928 297.078C216.474 297.266 215.987 297.359 215.497 297.352H88.2009C87.7558 297.357 87.3141 297.27 86.9023 297.096C86.4905 296.921 86.117 296.663 85.8041 296.336C85.4912 296.009 85.2454 295.62 85.0812 295.193C84.9171 294.766 84.8381 294.309 84.8489 293.849V32.1065C84.8339 31.7019 84.8963 31.2981 85.0326 30.9184C85.1688 30.5386 85.3763 30.1904 85.643 29.8935C85.9098 29.5966 86.2306 29.3569 86.5871 29.1881C86.9436 29.0194 87.3289 28.9248 87.7209 28.9099H117.945C118.412 28.9185 118.867 29.0709 119.25 29.3475C119.634 29.6241 119.928 30.0124 120.097 30.4628L121.481 33.9816C121.652 34.4289 121.948 34.8137 122.331 35.0872C122.714 35.3607 123.167 35.5106 123.633 35.5179H180.537C181.001 35.5159 181.453 35.371 181.837 35.1016C182.22 34.8323 182.517 34.4509 182.689 34.0063L184.073 30.4711C184.245 30.0228 184.541 29.6363 184.923 29.359C185.306 29.0817 185.758 28.9256 186.225 28.9099H216.001C216.878 28.9442 217.708 29.33 218.314 29.9853C218.92 30.6407 219.256 31.5141 219.249 32.4204Z" fill="url(#paint0_linear_4030_174)"/>
<path opacity="0.6" d="M219.249 32.4204V293.536C219.249 294.042 219.152 294.543 218.962 295.009C218.773 295.476 218.496 295.899 218.147 296.255C217.797 296.61 217.383 296.89 216.928 297.078C216.474 297.266 215.987 297.359 215.497 297.352H88.2009C87.7558 297.357 87.3141 297.27 86.9023 297.096C86.4905 296.921 86.117 296.663 85.8041 296.336C85.4912 296.009 85.2454 295.62 85.0812 295.193C84.9171 294.766 84.8381 294.309 84.8489 293.849V32.1065C84.8339 31.7019 84.8963 31.2981 85.0326 30.9184C85.1688 30.5386 85.3763 30.1904 85.643 29.8935C85.9098 29.5966 86.2306 29.3569 86.5871 29.1881C86.9436 29.0194 87.3289 28.9248 87.7209 28.9099H117.945C118.412 28.9185 118.867 29.0709 119.25 29.3475C119.634 29.6241 119.928 30.0124 120.097 30.4628L121.481 33.9816C121.652 34.4289 121.948 34.8137 122.331 35.0872C122.714 35.3607 123.167 35.5106 123.633 35.5179H180.537C181.001 35.5159 181.453 35.371 181.837 35.1016C182.22 34.8323 182.517 34.4509 182.689 34.0063L184.073 30.4711C184.245 30.0228 184.541 29.6363 184.923 29.359C185.306 29.0817 185.758 28.9256 186.225 28.9099H216.001C216.878 28.9442 217.708 29.33 218.314 29.9853C218.92 30.6407 219.256 31.5141 219.249 32.4204Z" fill="white"/>
<path d="M122.056 227.109H94.3358C92.8425 227.109 91.6318 228.359 91.6318 229.901V258.521C91.6318 260.063 92.8425 261.313 94.3358 261.313H122.056C123.549 261.313 124.76 260.063 124.76 258.521V229.901C124.76 228.359 123.549 227.109 122.056 227.109Z" fill="white"/>
<path opacity="0.5" d="M117.737 234.344H98.6406V254.061H117.737V234.344Z" fill="url(#paint1_linear_4030_174)"/>
<path opacity="0.3" d="M98.6406 234.344V254.061H117.745V234.344H98.6406ZM107.577 244.207L99.5206 252.525V235.889L107.577 244.207ZM100.137 235.253H116.249L108.193 243.563L100.137 235.253ZM108.193 244.843L116.249 253.161H100.137L108.193 244.843ZM108.809 244.207L116.865 235.889V252.525L108.809 244.207Z" fill="white"/>
<path opacity="0.75" d="M125.049 268.45H91.3369V272.373H125.049V268.45Z" fill="url(#paint2_linear_4030_174)"/>
<path d="M92.7207 269.491H91.7607V269.135H94.0727V269.491H93.1127V272.018H92.7207V269.491Z" fill="white"/>
<path d="M165.329 226.762H137.609C136.116 226.762 134.905 228.012 134.905 229.554V258.174C134.905 259.716 136.116 260.966 137.609 260.966H165.329C166.823 260.966 168.033 259.716 168.033 258.174V229.554C168.033 228.012 166.823 226.762 165.329 226.762Z" fill="white"/>
<path opacity="0.5" d="M161.01 234.006H141.914V253.723H161.01V234.006Z" fill="url(#paint3_linear_4030_174)"/>
<path opacity="0.3" d="M141.914 234.006V253.723H161.018V234.006H141.914ZM150.85 243.868L142.794 252.178V235.551L150.85 243.868ZM143.41 234.914H159.522L151.466 243.224L143.41 234.914ZM151.466 244.496L159.522 252.814H143.41L151.466 244.496ZM152.082 243.86L160.138 235.542V252.178L152.082 243.86Z" fill="white"/>
<path opacity="0.75" d="M168.322 268.111H134.61V272.035H168.322V268.111Z" fill="url(#paint4_linear_4030_174)"/>
<path d="M136.002 269.152H135.042V268.797H137.354V269.152H136.394V271.63H136.002V269.152Z" fill="white"/>
<path d="M208.603 226.423H180.883C179.389 226.423 178.179 227.673 178.179 229.215V257.836C178.179 259.378 179.389 260.628 180.883 260.628H208.603C210.096 260.628 211.307 259.378 211.307 257.836V229.215C211.307 227.673 210.096 226.423 208.603 226.423Z" fill="white"/>
<path opacity="0.5" d="M204.28 233.667H185.184V253.384H204.28V233.667Z" fill="url(#paint5_linear_4030_174)"/>
<path opacity="0.3" d="M185.184 233.667V253.384H204.28V233.667H185.184ZM194.112 243.521L186.064 251.839V235.212L194.112 243.521ZM186.68 234.584H202.792L194.736 242.902L186.68 234.584ZM194.736 244.182L202.792 252.5H186.68L194.736 244.182ZM195.352 243.538L203.408 235.228V251.856L195.352 243.538Z" fill="white"/>
<path opacity="0.75" d="M211.594 267.772H177.882V271.696H211.594V267.772Z" fill="url(#paint6_linear_4030_174)"/>
<path d="M179.266 268.813H178.306V268.45H180.618V268.813H179.658V271.333H179.266V268.813Z" fill="white"/>
<path d="M211.209 53.2605H92.8889C92.0318 53.2605 91.3369 53.9779 91.3369 54.8629V111.94C91.3369 112.825 92.0318 113.542 92.8889 113.542H211.209C212.066 113.542 212.761 112.825 212.761 111.94V54.8629C212.761 53.9779 212.066 53.2605 211.209 53.2605Z" fill="white"/>
<path opacity="0.75" d="M97.2505 84.6237C98.735 84.6237 99.9385 83.3811 99.9385 81.8484C99.9385 80.3156 98.735 79.073 97.2505 79.073C95.766 79.073 94.5625 80.3156 94.5625 81.8484C94.5625 83.3811 95.766 84.6237 97.2505 84.6237Z" fill="url(#paint7_linear_4030_174)"/>
<path d="M95.9219 81.8482L98.0019 83.302V80.3862L95.9219 81.8482Z" fill="white"/>
<path opacity="0.75" d="M206.85 84.6237C208.335 84.6237 209.538 83.3811 209.538 81.8484C209.538 80.3156 208.335 79.073 206.85 79.073C205.366 79.073 204.162 80.3156 204.162 81.8484C204.162 83.3811 205.366 84.6237 206.85 84.6237Z" fill="url(#paint8_linear_4030_174)"/>
<path d="M208.176 81.8482L206.096 80.3862V83.302L208.176 81.8482Z" fill="white"/>
<path opacity="0.75" d="M179.24 67.8477H111.488V74.8191H179.24V67.8477Z" fill="url(#paint9_linear_4030_174)"/>
<path opacity="0.75" d="M179.24 76.9004H111.488V83.8718H179.24V76.9004Z" fill="url(#paint10_linear_4030_174)"/>
<path opacity="0.75" d="M166.976 86.6475H111.488V93.6189H166.976V86.6475Z" fill="url(#paint11_linear_4030_174)"/>
<path d="M113.953 69.6978H112.249V69.0618H116.361V69.6978H114.657V74.1912H113.953V69.6978Z" fill="white"/>
<path opacity="0.75" d="M141.001 110.188C141.001 110.437 140.93 110.679 140.796 110.886C140.663 111.092 140.473 111.253 140.251 111.348C140.028 111.443 139.784 111.468 139.548 111.42C139.312 111.371 139.096 111.252 138.925 111.076C138.755 110.901 138.64 110.677 138.593 110.433C138.546 110.19 138.57 109.937 138.662 109.708C138.754 109.478 138.91 109.282 139.11 109.144C139.31 109.006 139.545 108.933 139.785 108.933C140.108 108.933 140.417 109.065 140.645 109.301C140.873 109.536 141.001 109.855 141.001 110.188Z" fill="url(#paint12_linear_4030_174)"/>
<path opacity="0.75" d="M147.128 110.188C147.128 110.437 147.057 110.68 146.923 110.887C146.789 111.093 146.598 111.254 146.376 111.349C146.153 111.444 145.908 111.468 145.672 111.419C145.436 111.37 145.219 111.25 145.05 111.073C144.88 110.897 144.765 110.672 144.719 110.428C144.673 110.184 144.698 109.931 144.791 109.702C144.884 109.473 145.042 109.277 145.243 109.14C145.444 109.003 145.679 108.931 145.92 108.933C146.241 108.935 146.549 109.068 146.775 109.304C147.001 109.539 147.128 109.857 147.128 110.188Z" fill="url(#paint13_linear_4030_174)"/>
<path opacity="0.75" d="M153.263 110.188C153.263 110.437 153.192 110.679 153.058 110.886C152.925 111.092 152.735 111.253 152.512 111.348C152.29 111.443 152.046 111.468 151.81 111.42C151.574 111.371 151.357 111.252 151.187 111.076C151.017 110.901 150.901 110.677 150.854 110.433C150.808 110.19 150.832 109.937 150.924 109.708C151.016 109.478 151.172 109.282 151.371 109.144C151.571 109.006 151.807 108.933 152.047 108.933C152.207 108.933 152.365 108.965 152.512 109.028C152.66 109.092 152.794 109.184 152.907 109.301C153.02 109.417 153.109 109.556 153.17 109.708C153.232 109.86 153.263 110.023 153.263 110.188Z" fill="url(#paint14_linear_4030_174)"/>
<path opacity="0.75" d="M159.394 110.188C159.394 110.437 159.322 110.68 159.188 110.887C159.054 111.093 158.864 111.254 158.641 111.349C158.419 111.444 158.174 111.468 157.938 111.419C157.702 111.37 157.485 111.25 157.315 111.073C157.146 110.897 157.03 110.672 156.984 110.428C156.938 110.184 156.964 109.931 157.057 109.702C157.15 109.473 157.307 109.277 157.508 109.14C157.709 109.003 157.945 108.931 158.186 108.933C158.507 108.935 158.814 109.068 159.041 109.304C159.267 109.539 159.394 109.857 159.394 110.188Z" fill="url(#paint15_linear_4030_174)"/>
<path opacity="0.75" d="M165.529 110.188C165.529 110.437 165.457 110.679 165.324 110.886C165.19 111.092 165 111.253 164.778 111.348C164.556 111.443 164.311 111.468 164.075 111.42C163.84 111.371 163.623 111.252 163.453 111.076C163.283 110.901 163.167 110.677 163.12 110.433C163.073 110.19 163.097 109.937 163.189 109.708C163.281 109.478 163.437 109.282 163.637 109.144C163.837 109.006 164.072 108.933 164.313 108.933C164.635 108.933 164.944 109.065 165.173 109.301C165.401 109.536 165.529 109.855 165.529 110.188Z" fill="url(#paint16_linear_4030_174)"/>
<path d="M212.761 122.058H91.3369V131.854H212.761V122.058Z" fill="white"/>
<path opacity="0.75" d="M212.762 121.95H203.058V131.97H212.762V121.95Z" fill="url(#paint17_linear_4030_174)"/>
<path d="M201.081 139.429H93.4169C92.2682 139.429 91.3369 140.39 91.3369 141.576V175.327C91.3369 176.513 92.2682 177.474 93.4169 177.474H201.081C202.23 177.474 203.161 176.513 203.161 175.327V141.576C203.161 140.39 202.23 139.429 201.081 139.429Z" fill="white"/>
<path opacity="0.5" d="M131.295 144.707H96.3193V172.204H131.295V144.707Z" fill="url(#paint18_linear_4030_174)"/>
<path opacity="0.3" d="M96.3193 144.707V172.204H131.295V144.707H96.3193ZM129.703 145.533L113.807 157.923L97.9193 145.533H129.703ZM97.1193 145.946L113.119 158.451L97.1193 170.982V145.946ZM97.9193 171.378L113.807 158.988L129.703 171.378H97.9193ZM114.471 158.451L130.471 145.946V170.982L114.471 158.451Z" fill="white"/>
<path opacity="0.75" d="M198.729 145.112H136.729V148.696H198.729V145.112Z" fill="url(#paint19_linear_4030_174)"/>
<path opacity="0.75" d="M198.729 151.414H136.729V154.999H198.729V151.414Z" fill="url(#paint20_linear_4030_174)"/>
<path opacity="0.75" d="M165.225 158.072H136.729V161.656H165.225V158.072Z" fill="url(#paint21_linear_4030_174)"/>
<path d="M137.992 146.07H137.12V145.74H139.2V146.07H138.32V148.374H137.96L137.992 146.07Z" fill="white"/>
<path d="M201.081 180.729H93.4169C92.2682 180.729 91.3369 181.69 91.3369 182.876V216.627C91.3369 217.813 92.2682 218.774 93.4169 218.774H201.081C202.23 218.774 203.161 217.813 203.161 216.627V182.876C203.161 181.69 202.23 180.729 201.081 180.729Z" fill="white"/>
<path opacity="0.5" d="M131.295 186.007H96.3193V213.504H131.295V186.007Z" fill="url(#paint22_linear_4030_174)"/>
<path opacity="0.3" d="M96.3193 186.007V213.504H131.295V186.007H96.3193ZM129.703 186.833L113.807 199.223L97.9193 186.833H129.703ZM97.1193 187.246L113.119 199.751L97.1193 212.282V187.246ZM97.9193 212.678L113.807 200.288L129.703 212.678H97.9193ZM114.471 199.751L130.471 187.246V212.282L114.471 199.751Z" fill="white"/>
<path opacity="0.75" d="M198.729 186.412H136.729V189.996H198.729V186.412Z" fill="url(#paint23_linear_4030_174)"/>
<path opacity="0.75" d="M198.729 192.714H136.729V196.299H198.729V192.714Z" fill="url(#paint24_linear_4030_174)"/>
<path opacity="0.75" d="M165.225 199.372H136.729V202.956H165.225V199.372Z" fill="url(#paint25_linear_4030_174)"/>
<path d="M137.992 187.37H137.12V187.039H139.2V187.37H138.32V189.674H137.96L137.992 187.37Z" fill="white"/>
<path d="M211.594 139.47H207.274V218.782H211.594V139.47Z" fill="white"/>
<path opacity="0.75" d="M211.594 143.782H207.274V156.205H211.594V143.782Z" fill="url(#paint26_linear_4030_174)"/>
<path d="M219.249 32.4204V45.2151H84.8489V32.1065C84.8339 31.7019 84.8963 31.2981 85.0326 30.9184C85.1688 30.5386 85.3763 30.1904 85.643 29.8935C85.9098 29.5966 86.2306 29.3569 86.5871 29.1881C86.9436 29.0194 87.3289 28.9248 87.7209 28.9099H117.945C118.412 28.9185 118.867 29.0709 119.25 29.3475C119.634 29.6241 119.928 30.0124 120.097 30.4628L121.481 33.9816C121.652 34.4289 121.948 34.8137 122.331 35.0872C122.714 35.3607 123.167 35.5106 123.633 35.5179H180.537C181.001 35.5159 181.453 35.371 181.837 35.1016C182.22 34.8323 182.517 34.4509 182.689 34.0063L184.073 30.4711C184.245 30.0228 184.541 29.6363 184.923 29.359C185.306 29.0817 185.758 28.9256 186.225 28.9099H216.001C216.878 28.9442 217.708 29.33 218.314 29.9853C218.92 30.6407 219.256 31.5141 219.249 32.4204Z" fill="url(#paint27_linear_4030_174)"/>
<path d="M84.8477 280.014H219.248V293.544C219.248 294.05 219.15 294.551 218.961 295.018C218.772 295.484 218.495 295.908 218.145 296.263C217.796 296.618 217.382 296.898 216.927 297.086C216.472 297.275 215.986 297.368 215.496 297.36H88.1997C87.7545 297.366 87.3129 297.279 86.9011 297.104C86.4893 296.93 86.1158 296.671 85.8029 296.344C85.49 296.017 85.2442 295.629 85.08 295.201C84.9159 294.774 84.8369 294.317 84.8477 293.858V280.014Z" fill="url(#paint28_linear_4030_174)"/>
<path d="M78.0487 30.2563H53.6807V42.5059H78.0487V30.2563Z" fill="url(#paint29_linear_4030_174)"/>
<path d="M57.7197 33.5935H74.0157" stroke="white" stroke-linecap="round" stroke-linejoin="round"/>
<path d="M57.7197 36.377H74.0157" stroke="white" stroke-linecap="round" stroke-linejoin="round"/>
<path d="M57.7197 39.1606H65.8717" stroke="white" stroke-linecap="round" stroke-linejoin="round"/>
<path d="M70.7373 42.002L94.7853 63.5358" stroke="url(#paint30_linear_4030_174)" stroke-miterlimit="10"/>
<path d="M94.7822 65.0391C95.5863 65.0391 96.2382 64.366 96.2382 63.5358C96.2382 62.7055 95.5863 62.0325 94.7822 62.0325C93.978 62.0325 93.3262 62.7055 93.3262 63.5358C93.3262 64.366 93.978 65.0391 94.7822 65.0391Z" fill="url(#paint31_linear_4030_174)"/>
<path d="M75.6483 182.496H51.2803V194.746H75.6483V182.496Z" fill="url(#paint32_linear_4030_174)"/>
<path d="M55.3193 185.833H71.6153" stroke="white" stroke-linecap="round" stroke-linejoin="round"/>
<path d="M55.3193 188.617H71.6153" stroke="white" stroke-linecap="round" stroke-linejoin="round"/>
<path d="M55.3193 191.401H63.4713" stroke="white" stroke-linecap="round" stroke-linejoin="round"/>
<path d="M92.3837 190.12C93.1879 190.12 93.8397 189.447 93.8397 188.617C93.8397 187.787 93.1879 187.114 92.3837 187.114C91.5796 187.114 90.9277 187.787 90.9277 188.617C90.9277 189.447 91.5796 190.12 92.3837 190.12Z" fill="url(#paint33_linear_4030_174)"/>
<path d="M92.3834 188.617H74.1914" stroke="url(#paint34_linear_4030_174)" stroke-miterlimit="10"/>
<path d="M247.784 88.2417H223.416V100.491H247.784V88.2417Z" fill="url(#paint35_linear_4030_174)"/>
<path d="M227.447 91.5786H243.751" stroke="white" stroke-linecap="round" stroke-linejoin="round"/>
<path d="M227.447 94.3623H243.751" stroke="white" stroke-linecap="round" stroke-linejoin="round"/>
<path d="M227.447 97.146H235.599" stroke="white" stroke-linecap="round" stroke-linejoin="round"/>
<path d="M195.945 126.328C196.749 126.328 197.401 125.655 197.401 124.825C197.401 123.995 196.749 123.322 195.945 123.322C195.141 123.322 194.489 123.995 194.489 124.825C194.489 125.655 195.141 126.328 195.945 126.328Z" fill="url(#paint36_linear_4030_174)"/>
<path d="M195.944 124.825L231.088 97.6663" stroke="url(#paint37_linear_4030_174)" stroke-miterlimit="10"/>
<path d="M250.168 250.897H225.8V263.147H250.168V250.897Z" fill="url(#paint38_linear_4030_174)"/>
<path d="M229.841 254.243H246.137" stroke="white" stroke-linecap="round" stroke-linejoin="round"/>
<path d="M229.841 257.026H246.137" stroke="white" stroke-linecap="round" stroke-linejoin="round"/>
<path d="M229.841 259.81H237.993" stroke="white" stroke-linecap="round" stroke-linejoin="round"/>
<path d="M199.783 257.026C199.783 257.324 199.697 257.615 199.537 257.862C199.377 258.11 199.149 258.302 198.882 258.416C198.616 258.529 198.323 258.559 198.04 258.5C197.757 258.441 197.498 258.297 197.295 258.086C197.091 257.875 196.953 257.607 196.898 257.314C196.843 257.022 196.873 256.72 196.984 256.445C197.096 256.171 197.284 255.936 197.524 255.772C197.765 255.608 198.047 255.521 198.335 255.523C198.526 255.523 198.715 255.562 198.891 255.638C199.067 255.713 199.227 255.824 199.362 255.964C199.496 256.103 199.603 256.269 199.675 256.452C199.747 256.634 199.784 256.829 199.783 257.026Z" fill="url(#paint39_linear_4030_174)"/>
<path d="M198.337 257.026H227.601" stroke="url(#paint40_linear_4030_174)" stroke-miterlimit="10"/>
<path d="M274.71 121.86C272.014 121.992 260.726 137.645 260.726 137.645L256.534 132.011C256.534 132.011 250.07 144.98 253.262 151.158C256.454 157.337 273.31 140.42 273.31 140.42L274.71 121.86Z" fill="url(#paint41_linear_4030_174)"/>
<path opacity="0.2" d="M274.713 121.86L273.601 134.349L273.313 140.453C273.313 140.453 270.545 143.228 267.041 146.111C261.897 150.332 255.201 154.826 253.265 151.158C250.065 144.988 256.537 132.02 256.537 132.02L260.729 137.645V137.595C261.393 136.654 272.105 121.984 274.713 121.86Z" fill="black"/>
<path opacity="0.2" d="M273.601 134.349L273.313 140.453C273.313 140.453 270.545 143.229 267.041 146.111C266.705 138.776 273.313 128.104 273.313 128.104L273.601 134.349Z" fill="black"/>
<path opacity="0.2" d="M260.727 137.645L261.327 138.834L259.567 145.896C259.567 145.896 264.415 141.345 261.327 136.876L260.727 137.645Z" fill="black"/>
<path d="M274.224 161.004L296.96 162.813C296.96 162.813 297.272 148.771 299.08 141.494C299.672 139.132 300.408 136.48 301.344 133.399C301.744 132.086 302.144 130.715 302.656 129.269C303.168 127.824 303.56 126.436 304.08 124.908C300.973 123.879 297.796 123.087 294.576 122.537C291.177 121.914 287.739 121.541 284.288 121.422C279.832 121.422 274.688 121.901 274.688 121.901C274.688 121.901 273.96 122.091 273.504 126.956C273.104 131.499 273.304 144.344 274.224 161.004Z" fill="url(#paint42_linear_4030_174)"/>
<path opacity="0.2" d="M274.223 161.004L296.959 162.813C296.959 162.813 296.959 162.524 296.959 161.987C297.055 158.914 297.503 147.73 299.055 141.477C299.471 139.825 299.967 137.95 300.567 135.918C300.799 135.092 301.047 134.266 301.319 133.383C301.719 132.078 302.119 130.698 302.623 129.253C303.127 127.807 303.535 126.419 304.055 124.891C302.815 124.478 301.567 124.115 300.311 123.776C298.415 123.272 296.487 122.859 294.551 122.521C291.159 121.904 287.73 121.537 284.287 121.422C281.415 121.422 278.271 121.604 276.391 121.761C275.351 121.843 274.711 121.909 274.711 121.909C274.711 121.909 273.983 122.091 273.519 126.956C273.103 131.508 273.303 144.344 274.223 161.004Z" fill="black"/>
<path d="M286.176 126.609C291.824 125.866 293.528 123.371 293.528 123.371C291.216 121.125 291.632 117.804 292.224 115.739C292.402 115.083 292.635 114.445 292.92 113.831L286.12 115.144C286.283 116.127 286.377 117.121 286.4 118.118C286.424 118.848 286.359 119.577 286.208 120.29C285.744 122.388 284.608 122.413 284.608 122.413C283.376 124.726 286.176 126.609 286.176 126.609Z" fill="#EBB376"/>
<path opacity="0.2" d="M286.398 118.118C286.421 118.848 286.357 119.577 286.206 120.29C288.91 119.919 290.95 117.689 292.238 115.756C292.416 115.1 292.649 114.462 292.934 113.848L286.134 115.161C286.291 116.139 286.379 117.127 286.398 118.118Z" fill="black"/>
<path d="M302.112 86.441H304.08C303.64 84.1034 300.712 80.9481 297.52 81.7824C298.085 81.2148 298.704 80.7083 299.368 80.2708C298.221 80.0167 297.031 80.0618 295.905 80.4022C294.779 80.7426 293.753 81.3674 292.92 82.2201C290.168 85.1442 288.728 91.207 291.136 93.5776C291.448 93.8833 291.824 93.7924 292.232 93.4372C294.304 96.32 297.208 93.6602 297.712 93.5776C298.216 93.495 297.832 95.081 297.832 95.081C299.496 95.081 299.896 92.9003 299.896 92.9003L301.496 95.081C302.02 94.5122 302.4 93.819 302.602 93.0626C302.804 92.3063 302.823 91.5101 302.656 90.7445L304.096 91.7026C304.36 87.7791 302.112 86.441 302.112 86.441Z" fill="#263238"/>
<path d="M278.287 105.819C278.287 105.819 274.943 96.733 283.623 92.2478C292.303 87.7626 297.359 94.1228 297.679 100.268C297.999 106.414 296.079 111.708 293.247 112.766C290.415 113.823 278.287 105.819 278.287 105.819Z" fill="#263238"/>
<path d="M285.199 96.4935C279.343 97.369 277.911 100.888 278.351 107.182C278.903 115.045 281.351 120.332 288.439 117.573C298.071 113.831 294.919 95.048 285.199 96.4935Z" fill="#EBB376"/>
<path d="M282.087 106.281C281.747 107.255 281.293 108.181 280.735 109.04C280.94 109.267 281.202 109.43 281.492 109.511C281.782 109.591 282.088 109.585 282.375 109.495L282.087 106.281Z" fill="#D58745"/>
<path d="M285.6 105.249C285.656 105.745 285.968 106.116 286.288 106.075C286.608 106.034 286.824 105.596 286.76 105.092C286.696 104.588 286.4 104.225 286.072 104.266C285.744 104.307 285.544 104.753 285.6 105.249Z" fill="#263238"/>
<path d="M286.222 104.282L285.118 103.985C285.118 103.985 285.75 104.836 286.222 104.282Z" fill="#263238"/>
<path d="M279.592 105.893C279.656 106.389 279.96 106.761 280.28 106.719C280.6 106.678 280.816 106.249 280.76 105.745C280.704 105.241 280.392 104.877 280.072 104.919C279.752 104.96 279.536 105.398 279.592 105.893Z" fill="#263238"/>
<path d="M280.206 104.902L279.11 104.605C279.11 104.605 279.734 105.48 280.206 104.902Z" fill="#263238"/>
<path d="M285.08 101.069C285.535 100.941 286.012 100.922 286.475 101.014C286.939 101.105 287.375 101.305 287.752 101.598" stroke="#263238" stroke-width="0.707962" stroke-linecap="round" stroke-linejoin="round"/>
<path d="M280.801 101.441C280.388 101.394 279.97 101.444 279.578 101.587C279.186 101.73 278.83 101.962 278.537 102.267" stroke="#263238" stroke-width="0.707962" stroke-linecap="round" stroke-linejoin="round"/>
<path d="M293.024 105.728C293.024 105.728 289.592 101.169 289.472 97.2781C289.472 97.2781 277.176 94.1145 278.312 106.364C278.312 106.364 275.664 95.7335 285.696 93.9741C295.728 92.2147 297.816 107.446 293.248 112.757C293.248 112.766 295.152 108.586 293.024 105.728Z" fill="#263238"/>
<path d="M292.247 107.149C292.205 106.445 292.434 105.753 292.883 105.223C293.333 104.692 293.966 104.366 294.647 104.316C296.487 104.249 297.895 107.966 293.511 109.561C292.903 109.792 292.447 109.189 292.247 107.149Z" fill="#EBB376"/>
<path d="M283.626 112.65C283.626 112.65 286.154 112.865 286.826 110.453" stroke="#263238" stroke-width="0.707962" stroke-linecap="round" stroke-linejoin="round"/>
<path d="M270.601 132.201C270.611 132.287 270.603 132.374 270.578 132.457C270.553 132.539 270.511 132.615 270.455 132.68C270.398 132.744 270.33 132.795 270.253 132.829C270.176 132.864 270.092 132.88 270.009 132.879H263.521C263.342 132.867 263.173 132.794 263.04 132.671C262.906 132.548 262.816 132.383 262.785 132.201L261.337 118.985C261.323 118.895 261.328 118.802 261.35 118.714C261.373 118.625 261.413 118.542 261.467 118.47C261.522 118.398 261.591 118.339 261.669 118.295C261.746 118.252 261.832 118.225 261.921 118.217H268.417C268.604 118.242 268.778 118.331 268.91 118.471C269.042 118.61 269.125 118.791 269.145 118.985L270.601 132.201Z" fill="#263238"/>
<path opacity="0.5" d="M268.425 118.878L269.897 132.243C269.916 132.321 269.917 132.403 269.9 132.481C269.883 132.56 269.848 132.633 269.798 132.695C269.748 132.757 269.684 132.806 269.613 132.838C269.541 132.87 269.463 132.884 269.385 132.879H263.881C263.513 132.879 262.833 132.664 262.793 132.284L261.321 118.878C261.321 118.506 261.913 118.201 262.281 118.201H267.785C267.956 118.207 268.117 118.281 268.237 118.407C268.356 118.533 268.423 118.702 268.425 118.878Z" fill="white"/>
<path d="M256.991 133.3L260.383 127.369C260.353 126.08 260.447 124.79 260.663 123.52C260.959 122.785 264.279 121.133 264.927 121.381C265.575 121.629 265.815 127.741 265.223 128.567C264.631 129.393 262.559 130.31 262.559 130.31L262.703 131.466L260.727 137.645L256.991 133.3Z" fill="#EBB376"/>
<path d="M255.633 132.631L256.761 131.466L262.089 137.645L261.329 140.09L255.633 132.631Z" fill="url(#paint43_linear_4030_174)"/>
<path opacity="0.2" d="M282.633 142.493C282.633 142.493 288.897 157.229 296.985 162.003C297.081 158.931 297.529 147.747 299.081 141.494C299.497 139.842 299.993 137.967 300.593 135.935L298.129 132.879C298.129 132.879 296.417 138.339 297.177 143.072L287.745 137.116L282.633 142.493Z" fill="black"/>
<path d="M288.695 139.107L280.999 132.879C280.564 131.528 280.029 130.213 279.399 128.947C278.935 128.369 272.199 125.8 271.623 125.734C271.047 125.668 271.623 131.433 272.471 132.416C273.319 133.399 278.743 135.34 278.743 135.34L286.799 143.171L288.695 139.107Z" fill="#EBB376"/>
<path d="M304.08 124.875C308.6 127.212 310.608 153.553 302.76 158.105C294.912 162.656 283.2 142.072 283.2 142.072L287.76 137.116C287.76 137.116 297.304 145.376 298.464 144.616C299.624 143.856 298.304 135.786 298.304 135.786C298.304 135.786 296.96 133.308 299.784 129.509C302.608 125.709 304.08 124.875 304.08 124.875Z" fill="url(#paint44_linear_4030_174)"/>
<path opacity="0.2" d="M304.08 124.875C308.6 127.212 310.608 153.553 302.76 158.105C294.912 162.656 283.2 142.072 283.2 142.072L287.76 137.116C287.76 137.116 297.304 145.376 298.464 144.616C299.624 143.856 298.304 135.786 298.304 135.786C298.304 135.786 296.96 133.308 299.784 129.509C302.608 125.709 304.08 124.875 304.08 124.875Z" fill="black"/>
<path d="M283.103 143.93L281.743 143.08L286.855 135.34L288.735 136.422L283.103 143.93Z" fill="url(#paint45_linear_4030_174)"/>
<path d="M276.392 121.719C276.419 122.677 276.747 123.599 277.328 124.346C277.756 124.894 278.266 125.368 278.84 125.75C280.304 126.75 282.584 127.625 286.12 128.104C288.055 128.391 290.019 128.41 291.96 128.162C292.808 128.044 293.646 127.854 294.464 127.592C296.734 126.918 298.772 125.588 300.336 123.76C299.088 123.429 297.824 123.132 296.552 122.884C296.221 122.807 295.893 122.741 295.568 122.686L294.576 122.504C291.175 121.892 287.737 121.531 284.288 121.422C283.04 121.422 281.76 121.422 280.536 121.496C280 121.496 279.472 121.546 278.976 121.587C277.992 121.596 277.104 121.662 276.392 121.719Z" fill="#EBB376"/>
<path d="M292 128.162C292.849 128.044 293.686 127.854 294.504 127.592C294.715 125.839 295.444 124.195 296.592 122.884C296.261 122.807 295.933 122.741 295.608 122.686C293.6 124.098 292.48 126.684 292 128.162Z" fill="#263238"/>
<path d="M277.33 124.346C277.758 124.894 278.269 125.368 278.842 125.75C278.897 124.156 279.498 122.634 280.538 121.455C280.002 121.455 279.474 121.505 278.978 121.546C278.265 122.366 277.706 123.315 277.33 124.346Z" fill="#263238"/>
<path d="M272.176 73.1011H280.408C281.004 73.1011 281.576 73.3456 281.998 73.7809C282.419 74.2162 282.656 74.8065 282.656 75.4221V82.0301C282.656 82.6457 282.419 83.2361 281.998 83.6714C281.576 84.1067 281.004 84.3512 280.408 84.3512H277.384L276.288 87.0852L275.2 84.3842H272.176C271.58 84.3842 271.008 84.1397 270.586 83.7044C270.165 83.2691 269.928 82.6788 269.928 82.0632V75.4552C269.924 75.1476 269.979 74.8422 270.09 74.5568C270.201 74.2714 270.366 74.0116 270.575 73.7925C270.784 73.5735 271.033 73.3996 271.308 73.2809C271.583 73.1622 271.878 73.101 272.176 73.1011Z" fill="url(#paint46_linear_4030_174)"/>
<path d="M279.368 78.8502H277.808C277.517 77.666 277.393 76.4447 277.44 75.224C277.175 75.1838 276.905 75.1838 276.64 75.224C276.384 75.3066 276.296 78.082 276.296 78.082C275.311 77.9992 274.323 77.9799 273.336 78.0242C273.24 78.0985 273.224 78.528 273.216 78.8502C273.214 78.9361 273.243 79.0198 273.295 79.0863C273.348 79.1529 273.422 79.198 273.504 79.2136H273.6L273.744 81.9724C273.75 82.0762 273.794 82.1738 273.866 82.2458C273.939 82.3177 274.035 82.3588 274.136 82.3607H276.752C277.011 82.3601 277.265 82.2796 277.48 82.1294L277.768 81.9311L279.368 82.0468V78.8502Z" fill="url(#paint47_linear_4030_174)"/>
<path opacity="0.7" d="M279.368 78.8502H277.808C277.517 77.666 277.393 76.4447 277.44 75.224C277.175 75.1838 276.905 75.1838 276.64 75.224C276.384 75.3066 276.296 78.082 276.296 78.082C275.311 77.9992 274.323 77.9799 273.336 78.0242C273.24 78.0985 273.224 78.528 273.216 78.8502C273.214 78.9361 273.243 79.0198 273.295 79.0863C273.348 79.1529 273.422 79.198 273.504 79.2136H273.6L273.744 81.9724C273.75 82.0762 273.794 82.1738 273.866 82.2458C273.939 82.3177 274.035 82.3588 274.136 82.3607H276.752C277.011 82.3601 277.265 82.2796 277.48 82.1294L277.768 81.9311L279.368 82.0468V78.8502Z" fill="white"/>
<path d="M252.861 287.25L257.653 288.109L259.613 281.484L261.405 275.405L255.885 273.447L254.285 280.749L252.861 287.25Z" fill="#E4897B"/>
<path d="M258.736 287.977C258.816 287.44 252.256 286.697 252.256 286.697C252.256 286.697 247.544 290.1 243.512 290.331C239.48 290.562 241.224 293.313 245.6 294.056L256.32 295.973C259.36 296.534 257.896 293.552 258.736 287.977Z" fill="#263238"/>
<path d="M248.002 287.514C247.93 287.406 247.891 287.278 247.891 287.147C247.891 287.015 247.93 286.887 248.002 286.779C248.043 286.689 248.102 286.608 248.175 286.543C248.248 286.477 248.334 286.429 248.426 286.399C248.919 286.287 249.432 286.322 249.906 286.498C249.434 286.118 249.026 285.672 249.106 285.333C249.106 285.11 249.306 284.945 249.626 284.863C249.888 284.791 250.167 284.83 250.402 284.97C251.202 285.499 251.498 287.126 251.506 287.2C251.514 287.227 251.514 287.256 251.506 287.283V287.324C251.506 287.324 251.506 287.324 251.466 287.374C251.448 287.38 251.428 287.38 251.41 287.374C250.644 287.601 249.854 287.734 249.058 287.77C248.687 287.83 248.308 287.738 248.002 287.514ZM248.514 286.729C248.465 286.744 248.42 286.77 248.382 286.804C248.343 286.838 248.312 286.88 248.29 286.928C248.178 287.175 248.25 287.25 248.29 287.283C248.554 287.588 249.802 287.44 250.834 287.2C250.118 286.824 249.315 286.661 248.514 286.729ZM249.65 285.201C249.554 285.201 249.394 285.284 249.386 285.375C249.346 285.68 250.186 286.358 251.082 286.895C250.969 286.276 250.666 285.711 250.218 285.284C250.108 285.211 249.981 285.171 249.85 285.168C249.783 285.172 249.715 285.183 249.65 285.201Z" fill="url(#paint48_linear_4030_174)"/>
<path opacity="0.2" d="M254.256 280.906L259.6 281.617L261.4 275.471L255.88 273.48L254.256 280.906Z" fill="black"/>
<path d="M284.848 289.331H289.704L290.504 282.459L291.232 276.157L285.456 275.207L285.128 282.682L284.848 289.331Z" fill="#E4897B"/>
<path d="M290.752 289.009C290.752 288.472 284.152 288.893 284.152 288.893C284.152 288.893 280.096 293.073 276.152 294.015C272.208 294.956 274.416 297.319 278.816 297.319H289.696C292.8 297.36 290.88 294.651 290.752 289.009Z" fill="#263238"/>
<path d="M280.105 290.446C280.009 290.361 279.942 290.246 279.913 290.118C279.884 289.991 279.895 289.857 279.945 289.736C279.969 289.639 280.013 289.548 280.074 289.47C280.135 289.392 280.211 289.328 280.297 289.282C280.763 289.085 281.273 289.027 281.769 289.117C281.233 288.827 280.769 288.472 280.745 288.125C280.721 287.778 280.881 287.704 281.177 287.564C281.311 287.498 281.457 287.464 281.605 287.464C281.753 287.464 281.899 287.498 282.033 287.564C282.929 287.935 283.481 289.497 283.505 289.563C283.521 289.608 283.521 289.658 283.505 289.703C283.49 289.724 283.471 289.741 283.449 289.753C282.588 290.185 281.663 290.464 280.713 290.579C280.502 290.611 280.286 290.564 280.105 290.446ZM280.465 289.62C280.42 289.644 280.381 289.676 280.349 289.716C280.318 289.756 280.294 289.802 280.281 289.852C280.217 290.116 280.281 290.182 280.281 290.207C280.593 290.463 281.801 290.1 282.769 289.678C282.023 289.435 281.227 289.403 280.465 289.587V289.62ZM281.329 287.911C281.241 287.96 281.089 288.043 281.097 288.134C281.097 288.439 282.057 288.96 283.033 289.331C282.812 288.74 282.414 288.237 281.897 287.894C281.813 287.86 281.724 287.84 281.633 287.836C281.53 287.827 281.426 287.841 281.329 287.878V287.911Z" fill="url(#paint49_linear_4030_174)"/>
<path opacity="0.2" d="M285.128 282.839L290.504 282.599L291.232 276.223L285.456 275.24L285.128 282.839Z" fill="black"/>
<path d="M253.806 277.049L261.678 278.453C269.63 258.381 275.278 241.621 279.278 227.712C281.43 220.212 283.102 213.537 284.39 207.615L283.998 229.471V279.122H291.998C311.47 185.024 297.686 163.548 297.686 163.548L274.398 159.509C273.479 163.867 272.83 168.281 272.454 172.725L271.398 180.53L262.318 228.158L253.806 277.049Z" fill="url(#paint50_linear_4030_174)"/>
<path opacity="0.6" d="M253.806 277.049L261.678 278.453C269.63 258.381 275.278 241.621 279.278 227.712C281.43 220.212 283.102 213.537 284.39 207.615L283.998 229.471V279.122H291.998C311.47 185.024 297.686 163.548 297.686 163.548L274.398 159.509C273.479 163.867 272.83 168.281 272.454 172.725L271.398 180.53L262.318 228.158L253.806 277.049Z" fill="white"/>
<path d="M262.919 277.47L253.151 274.183L253.279 278.395L261.359 281.014L262.919 277.47Z" fill="url(#paint51_linear_4030_174)"/>
<path d="M293.064 277.924L282.888 276.413L283.736 280.543L292.136 281.691L293.064 277.924Z" fill="url(#paint52_linear_4030_174)"/>
<path d="M297.687 160.021V163.54L273.959 161.698V157.527L297.687 160.021Z" fill="#263238"/>
<path d="M279.095 162.383L284.279 162.854L284.631 158.856L279.447 158.385L279.095 162.383Z" fill="white"/>
<path d="M289.414 164.614L290.59 164.68L290.894 158.6L289.718 158.534L289.414 164.614Z" fill="url(#paint53_linear_4030_174)"/>
<path opacity="0.6" d="M289.414 164.614L290.59 164.68L290.894 158.6L289.718 158.534L289.414 164.614Z" fill="white"/>
<path d="M274.918 163.003L276.094 163.061L276.398 156.981L275.222 156.924L274.918 163.003Z" fill="url(#paint54_linear_4030_174)"/>
<path opacity="0.6" d="M274.918 163.003L276.094 163.061L276.398 156.981L275.222 156.924L274.918 163.003Z" fill="white"/>
<path opacity="0.2" d="M279.271 227.712C281.423 220.212 283.095 213.538 284.383 207.615C284.273 200.611 283.771 193.62 282.879 186.676C282.879 186.676 279.471 213.686 279.271 227.712Z" fill="black"/>
<defs>
<linearGradient id="paint0_linear_4030_174" x1="152.048" y1="28.9099" x2="152.048" y2="297.352" gradientUnits="userSpaceOnUse">
<stop stop-color="#2891EE"/>
<stop offset="0.480021" stop-color="#1E70B8"/>
<stop offset="1" stop-color="#0061B6"/>
</linearGradient>
<linearGradient id="paint1_linear_4030_174" x1="108.189" y1="234.344" x2="108.189" y2="254.061" gradientUnits="userSpaceOnUse">
<stop stop-color="#2891EE"/>
<stop offset="0.480021" stop-color="#1E70B8"/>
<stop offset="1" stop-color="#0061B6"/>
</linearGradient>
<linearGradient id="paint2_linear_4030_174" x1="108.193" y1="268.45" x2="108.193" y2="272.373" gradientUnits="userSpaceOnUse">
<stop stop-color="#2891EE"/>
<stop offset="0.480021" stop-color="#1E70B8"/>
<stop offset="1" stop-color="#0061B6"/>
</linearGradient>
<linearGradient id="paint3_linear_4030_174" x1="151.462" y1="234.006" x2="151.462" y2="253.723" gradientUnits="userSpaceOnUse">
<stop stop-color="#2891EE"/>
<stop offset="0.480021" stop-color="#1E70B8"/>
<stop offset="1" stop-color="#0061B6"/>
</linearGradient>
<linearGradient id="paint4_linear_4030_174" x1="151.466" y1="268.111" x2="151.466" y2="272.035" gradientUnits="userSpaceOnUse">
<stop stop-color="#2891EE"/>
<stop offset="0.480021" stop-color="#1E70B8"/>
<stop offset="1" stop-color="#0061B6"/>
</linearGradient>
<linearGradient id="paint5_linear_4030_174" x1="194.732" y1="233.667" x2="194.732" y2="253.384" gradientUnits="userSpaceOnUse">
<stop stop-color="#2891EE"/>
<stop offset="0.480021" stop-color="#1E70B8"/>
<stop offset="1" stop-color="#0061B6"/>
</linearGradient>
<linearGradient id="paint6_linear_4030_174" x1="194.738" y1="267.772" x2="194.738" y2="271.696" gradientUnits="userSpaceOnUse">
<stop stop-color="#2891EE"/>
<stop offset="0.480021" stop-color="#1E70B8"/>
<stop offset="1" stop-color="#0061B6"/>
</linearGradient>
<linearGradient id="paint7_linear_4030_174" x1="97.2505" y1="79.073" x2="97.2505" y2="84.6237" gradientUnits="userSpaceOnUse">
<stop stop-color="#2891EE"/>
<stop offset="0.480021" stop-color="#1E70B8"/>
<stop offset="1" stop-color="#0061B6"/>
</linearGradient>
<linearGradient id="paint8_linear_4030_174" x1="206.85" y1="79.073" x2="206.85" y2="84.6237" gradientUnits="userSpaceOnUse">
<stop stop-color="#2891EE"/>
<stop offset="0.480021" stop-color="#1E70B8"/>
<stop offset="1" stop-color="#0061B6"/>
</linearGradient>
<linearGradient id="paint9_linear_4030_174" x1="145.364" y1="67.8477" x2="145.364" y2="74.8191" gradientUnits="userSpaceOnUse">
<stop stop-color="#2891EE"/>
<stop offset="0.480021" stop-color="#1E70B8"/>
<stop offset="1" stop-color="#0061B6"/>
</linearGradient>
<linearGradient id="paint10_linear_4030_174" x1="145.364" y1="76.9004" x2="145.364" y2="83.8718" gradientUnits="userSpaceOnUse">
<stop stop-color="#2891EE"/>
<stop offset="0.480021" stop-color="#1E70B8"/>
<stop offset="1" stop-color="#0061B6"/>
</linearGradient>
<linearGradient id="paint11_linear_4030_174" x1="139.232" y1="86.6475" x2="139.232" y2="93.6189" gradientUnits="userSpaceOnUse">
<stop stop-color="#2891EE"/>
<stop offset="0.480021" stop-color="#1E70B8"/>
<stop offset="1" stop-color="#0061B6"/>
</linearGradient>
<linearGradient id="paint12_linear_4030_174" x1="139.785" y1="108.933" x2="139.785" y2="111.444" gradientUnits="userSpaceOnUse">
<stop stop-color="#2891EE"/>
<stop offset="0.480021" stop-color="#1E70B8"/>
<stop offset="1" stop-color="#0061B6"/>
</linearGradient>
<linearGradient id="paint13_linear_4030_174" x1="145.912" y1="108.933" x2="145.912" y2="111.444" gradientUnits="userSpaceOnUse">
<stop stop-color="#2891EE"/>
<stop offset="0.480021" stop-color="#1E70B8"/>
<stop offset="1" stop-color="#0061B6"/>
</linearGradient>
<linearGradient id="paint14_linear_4030_174" x1="152.047" y1="108.933" x2="152.047" y2="111.444" gradientUnits="userSpaceOnUse">
<stop stop-color="#2891EE"/>
<stop offset="0.480021" stop-color="#1E70B8"/>
<stop offset="1" stop-color="#0061B6"/>
</linearGradient>
<linearGradient id="paint15_linear_4030_174" x1="158.178" y1="108.933" x2="158.178" y2="111.444" gradientUnits="userSpaceOnUse">
<stop stop-color="#2891EE"/>
<stop offset="0.480021" stop-color="#1E70B8"/>
<stop offset="1" stop-color="#0061B6"/>
</linearGradient>
<linearGradient id="paint16_linear_4030_174" x1="164.313" y1="108.933" x2="164.313" y2="111.444" gradientUnits="userSpaceOnUse">
<stop stop-color="#2891EE"/>
<stop offset="0.480021" stop-color="#1E70B8"/>
<stop offset="1" stop-color="#0061B6"/>
</linearGradient>
<linearGradient id="paint17_linear_4030_174" x1="207.91" y1="121.95" x2="207.91" y2="131.97" gradientUnits="userSpaceOnUse">
<stop stop-color="#2891EE"/>
<stop offset="0.480021" stop-color="#1E70B8"/>
<stop offset="1" stop-color="#0061B6"/>
</linearGradient>
<linearGradient id="paint18_linear_4030_174" x1="113.807" y1="144.707" x2="113.807" y2="172.204" gradientUnits="userSpaceOnUse">
<stop stop-color="#2891EE"/>
<stop offset="0.480021" stop-color="#1E70B8"/>
<stop offset="1" stop-color="#0061B6"/>
</linearGradient>
<linearGradient id="paint19_linear_4030_174" x1="167.729" y1="145.112" x2="167.729" y2="148.696" gradientUnits="userSpaceOnUse">
<stop stop-color="#2891EE"/>
<stop offset="0.480021" stop-color="#1E70B8"/>
<stop offset="1" stop-color="#0061B6"/>
</linearGradient>
<linearGradient id="paint20_linear_4030_174" x1="167.729" y1="151.414" x2="167.729" y2="154.999" gradientUnits="userSpaceOnUse">
<stop stop-color="#2891EE"/>
<stop offset="0.480021" stop-color="#1E70B8"/>
<stop offset="1" stop-color="#0061B6"/>
</linearGradient>
<linearGradient id="paint21_linear_4030_174" x1="150.977" y1="158.072" x2="150.977" y2="161.656" gradientUnits="userSpaceOnUse">
<stop stop-color="#2891EE"/>
<stop offset="0.480021" stop-color="#1E70B8"/>
<stop offset="1" stop-color="#0061B6"/>
</linearGradient>
<linearGradient id="paint22_linear_4030_174" x1="113.807" y1="186.007" x2="113.807" y2="213.504" gradientUnits="userSpaceOnUse">
<stop stop-color="#2891EE"/>
<stop offset="0.480021" stop-color="#1E70B8"/>
<stop offset="1" stop-color="#0061B6"/>
</linearGradient>
<linearGradient id="paint23_linear_4030_174" x1="167.729" y1="186.412" x2="167.729" y2="189.996" gradientUnits="userSpaceOnUse">
<stop stop-color="#2891EE"/>
<stop offset="0.480021" stop-color="#1E70B8"/>
<stop offset="1" stop-color="#0061B6"/>
</linearGradient>
<linearGradient id="paint24_linear_4030_174" x1="167.729" y1="192.714" x2="167.729" y2="196.299" gradientUnits="userSpaceOnUse">
<stop stop-color="#2891EE"/>
<stop offset="0.480021" stop-color="#1E70B8"/>
<stop offset="1" stop-color="#0061B6"/>
</linearGradient>
<linearGradient id="paint25_linear_4030_174" x1="150.977" y1="199.372" x2="150.977" y2="202.956" gradientUnits="userSpaceOnUse">
<stop stop-color="#2891EE"/>
<stop offset="0.480021" stop-color="#1E70B8"/>
<stop offset="1" stop-color="#0061B6"/>
</linearGradient>
<linearGradient id="paint26_linear_4030_174" x1="209.434" y1="143.782" x2="209.434" y2="156.205" gradientUnits="userSpaceOnUse">
<stop stop-color="#2891EE"/>
<stop offset="0.480021" stop-color="#1E70B8"/>
<stop offset="1" stop-color="#0061B6"/>
</linearGradient>
<linearGradient id="paint27_linear_4030_174" x1="152.048" y1="28.9099" x2="152.048" y2="45.2151" gradientUnits="userSpaceOnUse">
<stop stop-color="#2891EE"/>
<stop offset="0.480021" stop-color="#1E70B8"/>
<stop offset="1" stop-color="#0061B6"/>
</linearGradient>
<linearGradient id="paint28_linear_4030_174" x1="152.047" y1="280.014" x2="152.047" y2="297.36" gradientUnits="userSpaceOnUse">
<stop stop-color="#2891EE"/>
<stop offset="0.480021" stop-color="#1E70B8"/>
<stop offset="1" stop-color="#0061B6"/>
</linearGradient>
<linearGradient id="paint29_linear_4030_174" x1="65.8647" y1="30.2563" x2="65.8647" y2="42.5059" gradientUnits="userSpaceOnUse">
<stop stop-color="#2891EE"/>
<stop offset="0.480021" stop-color="#1E70B8"/>
<stop offset="1" stop-color="#0061B6"/>
</linearGradient>
<linearGradient id="paint30_linear_4030_174" x1="82.7613" y1="42.002" x2="82.7613" y2="63.5358" gradientUnits="userSpaceOnUse">
<stop stop-color="#2891EE"/>
<stop offset="0.480021" stop-color="#1E70B8"/>
<stop offset="1" stop-color="#0061B6"/>
</linearGradient>
<linearGradient id="paint31_linear_4030_174" x1="94.7822" y1="62.0325" x2="94.7822" y2="65.0391" gradientUnits="userSpaceOnUse">
<stop stop-color="#2891EE"/>
<stop offset="0.480021" stop-color="#1E70B8"/>
<stop offset="1" stop-color="#0061B6"/>
</linearGradient>
<linearGradient id="paint32_linear_4030_174" x1="63.4643" y1="182.496" x2="63.4643" y2="194.746" gradientUnits="userSpaceOnUse">
<stop stop-color="#2891EE"/>
<stop offset="0.480021" stop-color="#1E70B8"/>
<stop offset="1" stop-color="#0061B6"/>
</linearGradient>
<linearGradient id="paint33_linear_4030_174" x1="92.3837" y1="187.114" x2="92.3837" y2="190.12" gradientUnits="userSpaceOnUse">
<stop stop-color="#2891EE"/>
<stop offset="0.480021" stop-color="#1E70B8"/>
<stop offset="1" stop-color="#0061B6"/>
</linearGradient>
<linearGradient id="paint34_linear_4030_174" x1="83.2874" y1="188.617" x2="83.2874" y2="189.617" gradientUnits="userSpaceOnUse">
<stop stop-color="#2891EE"/>
<stop offset="0.480021" stop-color="#1E70B8"/>
<stop offset="1" stop-color="#0061B6"/>
</linearGradient>
<linearGradient id="paint35_linear_4030_174" x1="235.6" y1="88.2417" x2="235.6" y2="100.491" gradientUnits="userSpaceOnUse">
<stop stop-color="#2891EE"/>
<stop offset="0.480021" stop-color="#1E70B8"/>
<stop offset="1" stop-color="#0061B6"/>
</linearGradient>
<linearGradient id="paint36_linear_4030_174" x1="195.945" y1="123.322" x2="195.945" y2="126.328" gradientUnits="userSpaceOnUse">
<stop stop-color="#2891EE"/>
<stop offset="0.480021" stop-color="#1E70B8"/>
<stop offset="1" stop-color="#0061B6"/>
</linearGradient>
<linearGradient id="paint37_linear_4030_174" x1="213.516" y1="97.6663" x2="213.516" y2="124.825" gradientUnits="userSpaceOnUse">
<stop stop-color="#2891EE"/>
<stop offset="0.480021" stop-color="#1E70B8"/>
<stop offset="1" stop-color="#0061B6"/>
</linearGradient>
<linearGradient id="paint38_linear_4030_174" x1="237.984" y1="250.897" x2="237.984" y2="263.147" gradientUnits="userSpaceOnUse">
<stop stop-color="#2891EE"/>
<stop offset="0.480021" stop-color="#1E70B8"/>
<stop offset="1" stop-color="#0061B6"/>
</linearGradient>
<linearGradient id="paint39_linear_4030_174" x1="198.327" y1="255.523" x2="198.327" y2="258.53" gradientUnits="userSpaceOnUse">
<stop stop-color="#2891EE"/>
<stop offset="0.480021" stop-color="#1E70B8"/>
<stop offset="1" stop-color="#0061B6"/>
</linearGradient>
<linearGradient id="paint40_linear_4030_174" x1="212.969" y1="257.026" x2="212.969" y2="258.026" gradientUnits="userSpaceOnUse">
<stop stop-color="#2891EE"/>
<stop offset="0.480021" stop-color="#1E70B8"/>
<stop offset="1" stop-color="#0061B6"/>
</linearGradient>
<linearGradient id="paint41_linear_4030_174" x1="263.544" y1="121.86" x2="263.544" y2="152.516" gradientUnits="userSpaceOnUse">
<stop stop-color="#2891EE"/>
<stop offset="0.480021" stop-color="#1E70B8"/>
<stop offset="1" stop-color="#0061B6"/>
</linearGradient>
<linearGradient id="paint42_linear_4030_174" x1="288.694" y1="121.422" x2="288.694" y2="162.813" gradientUnits="userSpaceOnUse">
<stop stop-color="#2891EE"/>
<stop offset="0.480021" stop-color="#1E70B8"/>
<stop offset="1" stop-color="#0061B6"/>
</linearGradient>
<linearGradient id="paint43_linear_4030_174" x1="258.861" y1="131.466" x2="258.861" y2="140.09" gradientUnits="userSpaceOnUse">
<stop stop-color="#2891EE"/>
<stop offset="0.480021" stop-color="#1E70B8"/>
<stop offset="1" stop-color="#0061B6"/>
</linearGradient>
<linearGradient id="paint44_linear_4030_174" x1="295.631" y1="124.875" x2="295.631" y2="158.762" gradientUnits="userSpaceOnUse">
<stop stop-color="#2891EE"/>
<stop offset="0.480021" stop-color="#1E70B8"/>
<stop offset="1" stop-color="#0061B6"/>
</linearGradient>
<linearGradient id="paint45_linear_4030_174" x1="285.239" y1="135.34" x2="285.239" y2="143.93" gradientUnits="userSpaceOnUse">
<stop stop-color="#2891EE"/>
<stop offset="0.480021" stop-color="#1E70B8"/>
<stop offset="1" stop-color="#0061B6"/>
</linearGradient>
<linearGradient id="paint46_linear_4030_174" x1="276.292" y1="73.1011" x2="276.292" y2="87.0852" gradientUnits="userSpaceOnUse">
<stop stop-color="#2891EE"/>
<stop offset="0.480021" stop-color="#1E70B8"/>
<stop offset="1" stop-color="#0061B6"/>
</linearGradient>
<linearGradient id="paint47_linear_4030_174" x1="276.292" y1="75.1938" x2="276.292" y2="82.3607" gradientUnits="userSpaceOnUse">
<stop stop-color="#2891EE"/>
<stop offset="0.480021" stop-color="#1E70B8"/>
<stop offset="1" stop-color="#0061B6"/>
</linearGradient>
<linearGradient id="paint48_linear_4030_174" x1="249.701" y1="284.827" x2="249.701" y2="287.788" gradientUnits="userSpaceOnUse">
<stop stop-color="#2891EE"/>
<stop offset="0.480021" stop-color="#1E70B8"/>
<stop offset="1" stop-color="#0061B6"/>
</linearGradient>
<linearGradient id="paint49_linear_4030_174" x1="281.707" y1="287.464" x2="281.707" y2="290.589" gradientUnits="userSpaceOnUse">
<stop stop-color="#2891EE"/>
<stop offset="0.480021" stop-color="#1E70B8"/>
<stop offset="1" stop-color="#0061B6"/>
</linearGradient>
<linearGradient id="paint50_linear_4030_174" x1="278.113" y1="159.509" x2="278.113" y2="279.122" gradientUnits="userSpaceOnUse">
<stop stop-color="#2891EE"/>
<stop offset="0.480021" stop-color="#1E70B8"/>
<stop offset="1" stop-color="#0061B6"/>
</linearGradient>
<linearGradient id="paint51_linear_4030_174" x1="258.035" y1="274.183" x2="258.035" y2="281.014" gradientUnits="userSpaceOnUse">
<stop stop-color="#2891EE"/>
<stop offset="0.480021" stop-color="#1E70B8"/>
<stop offset="1" stop-color="#0061B6"/>
</linearGradient>
<linearGradient id="paint52_linear_4030_174" x1="287.976" y1="276.413" x2="287.976" y2="281.691" gradientUnits="userSpaceOnUse">
<stop stop-color="#2891EE"/>
<stop offset="0.480021" stop-color="#1E70B8"/>
<stop offset="1" stop-color="#0061B6"/>
</linearGradient>
<linearGradient id="paint53_linear_4030_174" x1="290.154" y1="158.534" x2="290.154" y2="164.68" gradientUnits="userSpaceOnUse">
<stop stop-color="#2891EE"/>
<stop offset="0.480021" stop-color="#1E70B8"/>
<stop offset="1" stop-color="#0061B6"/>
</linearGradient>
<linearGradient id="paint54_linear_4030_174" x1="275.658" y1="156.924" x2="275.658" y2="163.061" gradientUnits="userSpaceOnUse">
<stop stop-color="#2891EE"/>
<stop offset="0.480021" stop-color="#1E70B8"/>
<stop offset="1" stop-color="#0061B6"/>
</linearGradient>
</defs>
</svg>
