<svg width="16" height="16" viewBox="0 0 16 16" fill="none" xmlns="http://www.w3.org/2000/svg">
<path d="M7.99967 1.33333C4.32367 1.33333 1.33301 4.32399 1.33301 7.99999C1.33301 11.676 4.32367 14.6667 7.99967 14.6667C11.6757 14.6667 14.6663 11.676 14.6663 7.99999C14.6663 4.32399 11.6757 1.33333 7.99967 1.33333ZM2.66634 7.99999C2.66634 7.40066 2.77034 6.82533 2.95367 6.28733L3.99967 7.33333L5.33301 8.66666V9.99999L6.66634 11.3333L7.33301 12V13.2873C4.70701 12.9573 2.66634 10.7147 2.66634 7.99999ZM12.2197 11.2487C11.7843 10.898 11.1243 10.6667 10.6663 10.6667V9.99999C10.6663 9.64637 10.5259 9.30723 10.2758 9.05719C10.0258 8.80714 9.68663 8.66666 9.33301 8.66666H6.66634V6.66666C7.01996 6.66666 7.3591 6.52619 7.60915 6.27614C7.8592 6.02609 7.99967 5.68695 7.99967 5.33333V4.66666H8.66634C9.01996 4.66666 9.3591 4.52619 9.60915 4.27614C9.8592 4.02609 9.99967 3.68695 9.99967 3.33333V3.05933C11.9517 3.85199 13.333 5.76666 13.333 7.99999C13.3327 9.17643 12.9411 10.3193 12.2197 11.2487Z" fill="black" fill-opacity="0.6"/>
</svg>
