<svg width="18" height="19" viewBox="0 0 18 19" fill="none" xmlns="http://www.w3.org/2000/svg">
<path d="M11.6544 10.3963V4.19121C11.6544 3.96139 11.5682 3.7603 11.3958 3.58794C11.2235 3.41558 11.0109 3.3294 10.7581 3.3294H9.27578L8.10371 1.57129H4.5875L3.41543 3.3294H1.93311C1.70329 3.3294 1.5022 3.41558 1.32983 3.58794C1.15747 3.7603 1.07129 3.96139 1.07129 4.19121V10.3963C1.07129 10.6261 1.15747 10.8272 1.32983 10.9996C1.5022 11.1719 1.70329 11.2581 1.93311 11.2581H10.7581C11.0109 11.2581 11.2235 11.1719 11.3958 10.9996C11.5682 10.8272 11.6544 10.6261 11.6544 10.3963ZM6.34561 4.63936C6.96611 4.63936 7.48895 4.85768 7.91411 5.29434C8.33927 5.73099 8.55186 6.25383 8.55186 6.86284C8.55186 7.47186 8.33927 7.98895 7.91411 8.41411C7.48895 8.83927 6.97186 9.05186 6.36284 9.05186C5.75382 9.05186 5.23099 8.83927 4.79434 8.41411C4.35768 7.98895 4.13936 7.47186 4.13936 6.86284C4.13936 6.25383 4.35768 5.73099 4.79434 5.29434C5.23099 4.85768 5.74808 4.63936 6.34561 4.63936ZM12.5162 5.98379H16.9287V15.2225C16.9287 15.843 16.7161 16.3658 16.291 16.791C15.8658 17.2161 15.3487 17.4287 14.7397 17.4287C14.1307 17.4287 13.6078 17.2161 13.1712 16.791C12.7345 16.3658 12.5162 15.8487 12.5162 15.2397C12.5162 14.6307 12.7345 14.1078 13.1712 13.6712C13.6078 13.2345 14.1249 13.0162 14.7225 13.0162C14.8604 13.0162 15.0097 13.0392 15.1706 13.0852V8.60371H12.5162V5.98379ZM9 13.0852V12.1544H10.7581V15.2225C10.7581 15.843 10.5455 16.3658 10.1204 16.791C9.6952 17.2161 9.17811 17.4287 8.56909 17.4287C7.96007 17.4287 7.43724 17.2161 7.00059 16.791C6.56393 16.3658 6.34561 15.8487 6.34561 15.2397C6.34561 14.6307 6.56393 14.1078 7.00059 13.6712C7.43724 13.2345 7.95433 13.0162 8.55186 13.0162C8.68975 13.0162 8.83913 13.0392 9 13.0852Z" fill="url(#paint0_linear_393_1056)"/>
<defs>
<linearGradient id="paint0_linear_393_1056" x1="9" y1="17.4287" x2="9" y2="1.57129" gradientUnits="userSpaceOnUse">
<stop stop-color="#2891EE"/>
<stop offset="0.480021" stop-color="#1E70B8"/>
<stop offset="1" stop-color="#0061B6"/>
</linearGradient>
</defs>
</svg>
