<svg width="20" height="20" viewBox="0 0 20 20" fill="none" xmlns="http://www.w3.org/2000/svg">
<path d="M2.98203 0.490895L10 7.50887L16.9816 0.527257C17.1358 0.363112 17.3216 0.231802 17.5278 0.1412C17.734 0.0505982 17.9564 0.00257146 18.1816 0C18.6638 0 19.1262 0.191552 19.4672 0.532517C19.8082 0.873482 19.9997 1.33593 19.9997 1.81813C20.0039 2.04103 19.9626 2.26246 19.8782 2.4688C19.7938 2.67515 19.6681 2.86207 19.5088 3.01809L12.4363 9.9997L19.5088 17.0722C19.8085 17.3654 19.9842 17.7624 19.9997 18.1813C19.9997 18.6635 19.8082 19.1259 19.4672 19.4669C19.1262 19.8079 18.6638 19.9994 18.1816 19.9994C17.9499 20.009 17.7187 19.9703 17.5027 19.8858C17.2868 19.8013 17.0907 19.6728 16.9271 19.5085L10 12.4905L3.00021 19.4903C2.84659 19.649 2.66306 19.7757 2.46023 19.8631C2.25739 19.9504 2.03926 19.9968 1.81842 19.9994C1.33623 19.9994 0.873778 19.8079 0.532813 19.4669C0.191848 19.1259 0.000295822 18.6635 0.000295822 18.1813C-0.00394313 17.9584 0.0374137 17.737 0.121828 17.5306C0.206243 17.3243 0.331935 17.1373 0.49119 16.9813L7.56371 9.9997L0.49119 2.92719C0.191536 2.63403 0.0158219 2.23705 0.000295822 1.81813C0.000295822 1.33593 0.191848 0.873482 0.532813 0.532517C0.873778 0.191552 1.33623 0 1.81842 0C2.25477 0.00545438 2.67294 0.181813 2.98203 0.490895Z" fill="#808080" fill-opacity="0.3"/>
</svg>
