<svg width="43" height="43" viewBox="0 0 43 43" fill="none" xmlns="http://www.w3.org/2000/svg">
<rect x="0.5" y="0.5" width="42" height="42" rx="21" fill="white"/>
<rect x="0.5" y="0.5" width="42" height="42" rx="21" stroke="url(#paint0_linear_268_984)"/>
<path d="M19.7748 14.6H23.2248C23.2248 14.1425 23.0431 13.7037 22.7196 13.3802C22.3961 13.0567 21.9573 12.875 21.4998 12.875C21.0423 12.875 20.6035 13.0567 20.28 13.3802C19.9565 13.7037 19.7748 14.1425 19.7748 14.6ZM18.6248 14.6C18.6248 13.8375 18.9277 13.1062 19.4669 12.5671C20.006 12.0279 20.7373 11.725 21.4998 11.725C22.2623 11.725 22.9936 12.0279 23.5327 12.5671C24.0719 13.1062 24.3748 13.8375 24.3748 14.6H30.1248C30.2773 14.6 30.4236 14.6606 30.5314 14.7684C30.6392 14.8763 30.6998 15.0225 30.6998 15.175C30.6998 15.3275 30.6392 15.4738 30.5314 15.5816C30.4236 15.6894 30.2773 15.75 30.1248 15.75H28.9127L27.5396 27.6456C27.4425 28.4865 27.0397 29.2623 26.4078 29.8255C25.7759 30.3887 24.9591 30.6999 24.1126 30.7H18.887C18.0406 30.6999 17.2237 30.3887 16.5918 29.8255C15.9599 29.2623 15.5571 28.4865 15.46 27.6456L14.0869 15.75H12.8748C12.7223 15.75 12.5761 15.6894 12.4682 15.5816C12.3604 15.4738 12.2998 15.3275 12.2998 15.175C12.2998 15.0225 12.3604 14.8763 12.4682 14.7684C12.5761 14.6606 12.7223 14.6 12.8748 14.6H18.6248ZM16.602 27.5145C16.6668 28.075 16.9355 28.5921 17.3568 28.9674C17.7782 29.3427 18.3228 29.5501 18.887 29.55H24.1126C24.6769 29.5501 25.2214 29.3427 25.6428 28.9674C26.0641 28.5921 26.3328 28.075 26.3977 27.5145L27.7547 15.75H15.245L16.602 27.5145ZM19.7748 18.625C19.9273 18.625 20.0736 18.6856 20.1814 18.7934C20.2892 18.9013 20.3498 19.0475 20.3498 19.2V26.1C20.3498 26.2525 20.2892 26.3988 20.1814 26.5066C20.0736 26.6144 19.9273 26.675 19.7748 26.675C19.6223 26.675 19.4761 26.6144 19.3682 26.5066C19.2604 26.3988 19.1998 26.2525 19.1998 26.1V19.2C19.1998 19.0475 19.2604 18.9013 19.3682 18.7934C19.4761 18.6856 19.6223 18.625 19.7748 18.625ZM23.7998 19.2C23.7998 19.0475 23.7392 18.9013 23.6314 18.7934C23.5236 18.6856 23.3773 18.625 23.2248 18.625C23.0723 18.625 22.9261 18.6856 22.8182 18.7934C22.7104 18.9013 22.6498 19.0475 22.6498 19.2V26.1C22.6498 26.2525 22.7104 26.3988 22.8182 26.5066C22.9261 26.6144 23.0723 26.675 23.2248 26.675C23.3773 26.675 23.5236 26.6144 23.6314 26.5066C23.7392 26.3988 23.7998 26.2525 23.7998 26.1V19.2Z" fill="url(#paint1_linear_268_984)"/>
<defs>
<linearGradient id="paint0_linear_268_984" x1="21.5" y1="0" x2="21.5" y2="43" gradientUnits="userSpaceOnUse">
<stop stop-color="#FF665E"/>
<stop offset="1" stop-color="#CE1E14"/>
</linearGradient>
<linearGradient id="paint1_linear_268_984" x1="21.4998" y1="11.725" x2="21.4998" y2="30.7" gradientUnits="userSpaceOnUse">
<stop stop-color="#FF665E"/>
<stop offset="1" stop-color="#CE1E14"/>
</linearGradient>
</defs>
</svg>
