<svg width="22" height="22" viewBox="0 0 22 22" fill="none" xmlns="http://www.w3.org/2000/svg">
<rect x="0.5" y="0.5" width="21" height="21" rx="3.5" stroke="url(#paint0_linear_393_1064)"/>
<path d="M13.6098 7.15466L14.8447 8.38957M14.4037 6.06674L11.0629 9.40749C10.8898 9.57948 10.772 9.79926 10.7246 10.0387L10.416 11.5833L11.9607 11.2742C12.1998 11.2263 12.4192 11.1091 12.5918 10.9364L15.9326 7.59566C16.033 7.49527 16.1126 7.37609 16.167 7.24492C16.2213 7.11375 16.2492 6.97317 16.2492 6.8312C16.2492 6.68923 16.2213 6.54864 16.167 6.41748C16.1126 6.28631 16.033 6.16713 15.9326 6.06674C15.8322 5.96635 15.713 5.88672 15.5819 5.83239C15.4507 5.77806 15.3101 5.75009 15.1681 5.75009C15.0262 5.75009 14.8856 5.77806 14.7544 5.83239C14.6233 5.88672 14.5041 5.96635 14.4037 6.06674Z" stroke="url(#paint1_linear_393_1064)" stroke-linecap="round" stroke-linejoin="round"/>
<path d="M15.083 12.75V14.5C15.083 14.8094 14.9601 15.1062 14.7413 15.3249C14.5225 15.5437 14.2258 15.6667 13.9163 15.6667H7.49967C7.19026 15.6667 6.89351 15.5437 6.67472 15.3249C6.45592 15.1062 6.33301 14.8094 6.33301 14.5V8.08332C6.33301 7.7739 6.45592 7.47716 6.67472 7.25837C6.89351 7.03957 7.19026 6.91666 7.49967 6.91666H9.24967" stroke="url(#paint2_linear_393_1064)" stroke-linecap="round" stroke-linejoin="round"/>
<defs>
<linearGradient id="paint0_linear_393_1064" x1="11" y1="0" x2="11" y2="22" gradientUnits="userSpaceOnUse">
<stop stop-color="#2891EE"/>
<stop offset="0.480021" stop-color="#1E70B8"/>
<stop offset="1" stop-color="#0061B6"/>
</linearGradient>
<linearGradient id="paint1_linear_393_1064" x1="13.3326" y1="5.75009" x2="13.3326" y2="11.5833" gradientUnits="userSpaceOnUse">
<stop stop-color="#2891EE"/>
<stop offset="0.480021" stop-color="#1E70B8"/>
<stop offset="1" stop-color="#0061B6"/>
</linearGradient>
<linearGradient id="paint2_linear_393_1064" x1="10.708" y1="6.91666" x2="10.708" y2="15.6667" gradientUnits="userSpaceOnUse">
<stop stop-color="#2891EE"/>
<stop offset="0.480021" stop-color="#1E70B8"/>
<stop offset="1" stop-color="#0061B6"/>
</linearGradient>
</defs>
</svg>
