<svg width="25" height="25" viewBox="0 0 25 25" fill="none" xmlns="http://www.w3.org/2000/svg">
<path d="M17.1414 13.0151L8.82579 21.0259C8.68704 21.1596 8.50214 21.2348 8.30943 21.2359C8.11673 21.2369 7.93101 21.1638 7.7908 21.0316L7.78175 21.0226C7.71355 20.9585 7.65909 20.8813 7.6217 20.7955C7.58431 20.7097 7.56476 20.6172 7.56425 20.5236C7.56373 20.43 7.58226 20.3373 7.61871 20.2511C7.65516 20.1649 7.70876 20.087 7.77626 20.0221L15.607 12.479L7.69391 5.02537C7.62571 4.96129 7.57125 4.88399 7.53386 4.7982C7.49647 4.7124 7.47692 4.6199 7.47641 4.52631C7.47589 4.43272 7.49442 4.34001 7.53087 4.25381C7.56732 4.16761 7.62092 4.08972 7.68842 4.02489L7.69737 4.01584C7.83612 3.88211 8.02102 3.80691 8.21372 3.80586C8.40643 3.8048 8.59214 3.87796 8.73235 4.01016L17.1355 11.9291C17.2094 11.9988 17.2684 12.0827 17.3089 12.1758C17.3494 12.2689 17.3705 12.3693 17.3711 12.4708C17.3716 12.5724 17.3516 12.673 17.3121 12.7665C17.2726 12.8601 17.2146 12.9447 17.1414 13.0151Z" fill="url(#paint0_linear_411_218)"/>
<defs>
<linearGradient id="paint0_linear_411_218" x1="17.3711" y1="12.4708" x2="7.52033" y2="12.5249" gradientUnits="userSpaceOnUse">
<stop stop-color="#2891EE"/>
<stop offset="0.480021" stop-color="#1E70B8"/>
<stop offset="1" stop-color="#0061B6"/>
</linearGradient>
</defs>
</svg>
