<svg width="24" height="24" viewBox="0 0 24 24" fill="none" xmlns="http://www.w3.org/2000/svg">
<path d="M12.5427 17.351L20.5077 8.99153C20.6407 8.85205 20.7148 8.66673 20.7148 8.47403C20.7148 8.28132 20.6407 8.09601 20.5077 7.95653L20.4987 7.94753C20.4342 7.87967 20.3567 7.82565 20.2707 7.78872C20.1847 7.7518 20.092 7.73277 19.9985 7.73277C19.9049 7.73277 19.8122 7.7518 19.7262 7.78872C19.6403 7.82565 19.5627 7.87967 19.4982 7.94753L11.9982 15.8195L4.5012 7.94753C4.43674 7.87967 4.35915 7.82565 4.27315 7.78872C4.18715 7.7518 4.09454 7.73277 4.00095 7.73277C3.90736 7.73277 3.81475 7.7518 3.72875 7.78872C3.64275 7.82565 3.56516 7.87967 3.5007 7.94753L3.4917 7.95653C3.35873 8.09601 3.28456 8.28132 3.28456 8.47403C3.28456 8.66673 3.35873 8.85205 3.4917 8.99153L11.4567 17.351C11.5267 17.4245 11.611 17.4831 11.7043 17.5231C11.7977 17.5631 11.8982 17.5837 11.9997 17.5837C12.1012 17.5837 12.2017 17.5631 12.2951 17.5231C12.3884 17.4831 12.4727 17.4245 12.5427 17.351Z" fill="black"/>
</svg>
