<svg width="24" height="25" viewBox="0 0 24 25" fill="none" xmlns="http://www.w3.org/2000/svg">
<path d="M6.92699 11.957L15.2865 3.99202C15.426 3.85905 15.6113 3.78488 15.804 3.78488C15.9967 3.78488 16.182 3.85905 16.3215 3.99202L16.3305 4.00102C16.3983 4.06548 16.4524 4.14307 16.4893 4.22907C16.5262 4.31507 16.5452 4.40768 16.5452 4.50127C16.5452 4.59486 16.5262 4.68747 16.4893 4.77347C16.4524 4.85947 16.3983 4.93706 16.3305 5.00152L8.45849 12.5015L16.3305 19.9985C16.3983 20.063 16.4524 20.1406 16.4893 20.2266C16.5262 20.3126 16.5452 20.4052 16.5452 20.4988C16.5452 20.5924 16.5262 20.685 16.4893 20.771C16.4524 20.857 16.3983 20.9346 16.3305 20.999L16.3215 21.008C16.182 21.141 15.9967 21.2152 15.804 21.2152C15.6113 21.2152 15.426 21.141 15.2865 21.008L6.92699 13.043C6.85347 12.973 6.79494 12.8887 6.75495 12.7954C6.71496 12.7021 6.69434 12.6016 6.69434 12.5C6.69434 12.3985 6.71496 12.298 6.75495 12.2046C6.79494 12.1113 6.85347 12.0271 6.92699 11.957Z" fill="url(#paint0_linear_411_218)"/>
<defs>
<linearGradient id="paint0_linear_411_218" x1="6.69434" y1="12.5" x2="16.5452" y2="12.5" gradientUnits="userSpaceOnUse">
<stop stop-color="#2891EE"/>
<stop offset="0.480021" stop-color="#1E70B8"/>
<stop offset="1" stop-color="#0061B6"/>
</linearGradient>
</defs>
</svg>
