<svg width="27" height="27" viewBox="0 0 27 27" fill="none" xmlns="http://www.w3.org/2000/svg">
<path d="M13.4999 1.6875C16.633 1.6875 19.6377 2.93212 21.8532 5.14755C24.0686 7.36298 25.3132 10.3677 25.3132 13.5008C25.3132 16.6339 24.0686 19.6387 21.8532 21.8541C19.6377 24.0696 16.633 25.3142 13.4999 25.3142C10.3668 25.3142 7.362 24.0696 5.14657 21.8541C2.93114 19.6387 1.68652 16.6339 1.68652 13.5008C1.68652 10.3677 2.93114 7.36298 5.14657 5.14755C7.362 2.93212 10.3668 1.6875 13.4999 1.6875ZM15.2717 8.94037C16.1492 8.94037 16.8614 8.33119 16.8614 7.42837C16.8614 6.52556 16.1476 5.91637 15.2717 5.91637C14.3942 5.91637 13.6855 6.52556 13.6855 7.42837C13.6855 8.33119 14.3942 8.94037 15.2717 8.94037ZM15.5806 18.4359C15.5806 18.2554 15.643 17.7862 15.6076 17.5196L14.2204 19.116C13.9336 19.4181 13.5741 19.6273 13.4054 19.5716C13.3288 19.5435 13.2648 19.4889 13.2249 19.4177C13.185 19.3466 13.1718 19.2635 13.1877 19.1835L15.4996 11.88C15.6886 10.9536 15.1688 10.1081 14.0669 10.0001C12.9042 10.0001 11.1931 11.1797 10.1519 12.6765C10.1519 12.8554 10.1181 13.3009 10.1536 13.5675L11.539 11.9694C11.8259 11.6707 12.16 11.4598 12.3287 11.5172C12.4119 11.547 12.48 11.6083 12.5185 11.6878C12.557 11.7673 12.5628 11.8587 12.5346 11.9424L10.243 19.2105C9.97806 20.061 10.4792 20.8946 11.6942 21.0836C13.483 21.0836 14.5394 19.9327 15.5822 18.4359H15.5806Z" fill="url(#paint0_linear_409_549)"/>
<defs>
<linearGradient id="paint0_linear_409_549" x1="13.4999" y1="1.6875" x2="13.4999" y2="25.3142" gradientUnits="userSpaceOnUse">
<stop stop-color="#2891EE"/>
<stop offset="0.480021" stop-color="#1E70B8"/>
<stop offset="1" stop-color="#0061B6"/>
</linearGradient>
</defs>
</svg>
