<svg width="44" height="44" viewBox="0 0 44 44" fill="none" xmlns="http://www.w3.org/2000/svg">
<path fill-rule="evenodd" clip-rule="evenodd" d="M11.9455 1.10735C11.0913 1.38014 10.3761 2.07205 10.0504 2.94059C9.87752 3.40146 9.87206 3.80276 9.87206 15.9382V28.4602H22H34.1279V15.9407C34.1279 3.58241 34.1255 3.41459 33.9397 2.91132C33.6882 2.2303 33.1303 1.60818 32.4813 1.2853L31.9523 1.02208L22.1389 1.00407C14.3298 0.98972 12.2478 1.01083 11.9455 1.10735ZM26.0832 3.75023C24.7708 4.10772 23.7428 5.06078 23.3025 6.32781L23.1252 6.83802L18.2496 6.88492L13.374 6.93182L13.1459 7.20058L12.9178 7.46923L12.9456 9.67141C12.9733 11.8568 12.9751 11.8748 13.1921 12.0527C13.5155 12.3178 13.9819 12.2869 14.2165 11.9847C14.3945 11.7556 14.4085 11.6151 14.4085 10.0616V8.38581H15.8897H17.371V10.0785C17.371 11.7507 17.3738 11.7742 17.5983 12.0015C17.7415 12.1467 17.9313 12.2318 18.1117 12.2318C18.292 12.2318 18.4818 12.1467 18.625 12.0015C18.8495 11.7742 18.8523 11.7507 18.8523 10.0785V8.38581H20.9742H23.0961L23.2532 8.87829C23.7902 10.5623 25.314 11.6915 27.0399 11.6847C28.674 11.6781 29.97 10.8698 30.6383 9.44027C30.9197 8.83842 30.9339 8.75362 30.9339 7.68227C30.9339 6.61157 30.9196 6.52583 30.6391 5.92595C30.0744 4.71811 29.0799 3.94168 27.7923 3.70342C27.083 3.57209 26.6981 3.58269 26.0832 3.75023ZM26.3042 5.26584C25.6122 5.5163 25.1902 5.89002 24.8727 6.53362C24.342 7.60985 24.5651 8.77707 25.4529 9.56888C26.6857 10.6685 28.5741 10.2625 29.3007 8.74161C29.5941 8.12737 29.5767 7.17365 29.2603 6.53034C28.7139 5.41931 27.4154 4.86388 26.3042 5.26584ZM3.58996 6.80481C3.08115 6.95321 2.56372 7.35817 2.29829 7.81566L2.04907 8.2451L2.02453 20.0908L2 31.9365L2.19969 32.4068C2.42948 32.9481 2.99329 33.4829 3.47804 33.6193C3.68301 33.6771 6.57075 33.7124 11.0987 33.7127L18.3894 33.7133V36.5092V39.3051L15.4658 40.4672C13.5567 41.226 12.4966 41.6953 12.4107 41.8196C12.123 42.2357 12.3676 42.831 12.8799 42.9613C13.0426 43.0026 14.2204 42.5749 17.1265 41.4191C19.3382 40.5394 21.35 39.7928 21.5971 39.76C22.3262 39.6632 23.1033 39.9095 27.0953 41.5024C29.1594 42.3261 30.9423 43 31.0573 43C31.5603 43 31.893 42.2588 31.5879 41.8176C31.5003 41.6909 30.4584 41.2286 28.5328 40.4622L25.6106 39.2991V36.5062V33.7133L32.9013 33.7127C37.4292 33.7124 40.317 33.6771 40.522 33.6193C41.0067 33.4829 41.5705 32.9481 41.8003 32.4068L42 31.9365L41.9755 20.0908L41.9509 8.2451L41.7022 7.81641C41.4204 7.33068 40.9218 6.94805 40.3771 6.79937C40.1617 6.74065 39.0863 6.69815 37.808 6.69787L35.6092 6.69731V8.62032V10.5433H36.4067C37.3548 10.5433 37.7885 10.7364 38.0993 11.2967L38.2969 11.6528L38.2723 20.331C38.2478 28.9874 38.2473 29.01 38.0529 29.2741C37.9457 29.4198 37.7166 29.6233 37.5437 29.7265C37.2328 29.9121 37.0629 29.9141 22 29.9141C6.93709 29.9141 6.76721 29.9121 6.45633 29.7265C6.28339 29.6233 6.05425 29.4198 5.94714 29.2741C5.75272 29.01 5.75216 28.9874 5.72772 20.331L5.7031 11.6528L5.90066 11.2967C6.21145 10.7364 6.64519 10.5433 7.5933 10.5433H8.39078V8.62032V6.69731L6.14572 6.70575C4.91089 6.71044 3.76087 6.755 3.58996 6.80481ZM7.18724 20.2522V28.4602H7.78901H8.39078V20.2522V12.0442H7.78901H7.18724V20.2522ZM35.6319 20.2287L35.6555 28.4133L36.2341 28.4412L36.8128 28.4691V20.2567V12.0442H36.2105H35.6082L35.6319 20.2287ZM13.0786 14.7714C12.8903 14.9213 12.8346 15.0485 12.8346 15.3274C12.8346 15.6063 12.8903 15.7335 13.0786 15.8834C13.3214 16.077 13.3601 16.0779 22.1092 16.0779H30.8961L31.1233 15.8476C31.4932 15.4728 31.3997 14.9467 30.9169 14.6861C30.7673 14.6054 28.4523 14.577 22.0186 14.577C13.3611 14.577 13.3214 14.5778 13.0786 14.7714ZM13.1013 19.0803C12.8323 19.2396 12.708 19.6857 12.8494 19.9845C13.0961 20.5058 12.7358 20.4874 22.1546 20.4627L30.8727 20.4398L31.1117 20.2124C31.4031 19.9349 31.4206 19.5704 31.1586 19.233L30.9668 18.9858L22.109 18.9886C16.7144 18.9904 13.1926 19.0262 13.1013 19.0803ZM13.0786 23.4953C12.8903 23.6452 12.8346 23.7724 12.8346 24.0513C12.8346 24.3302 12.8903 24.4574 13.0786 24.6073C13.3214 24.8009 13.3601 24.8018 22.1092 24.8018H30.8961L31.1233 24.5715C31.424 24.2669 31.424 23.8357 31.1233 23.5312L30.8961 23.3009H22.1092C13.3601 23.3009 13.3214 23.3017 13.0786 23.4953ZM19.8707 36.2091C19.8707 38.5494 19.8808 38.7008 20.0327 38.6374C21.1599 38.1668 22.8401 38.1668 23.9673 38.6374C24.1192 38.7008 24.1293 38.5494 24.1293 36.2091V33.7133H22H19.8707V36.2091Z" fill="url(#paint0_linear_63_4845)"/>
<defs>
<linearGradient id="paint0_linear_63_4845" x1="22" y1="1" x2="22" y2="43" gradientUnits="userSpaceOnUse">
<stop stop-color="#2891EE"/>
<stop offset="0.480021" stop-color="#1E70B8"/>
<stop offset="1" stop-color="#0061B6"/>
</linearGradient>
</defs>
</svg>
