<svg width="44" height="44" viewBox="0 0 44 44" fill="none" xmlns="http://www.w3.org/2000/svg">
<path fill-rule="evenodd" clip-rule="evenodd" d="M11.9455 1.10735C11.0913 1.38014 10.3761 2.07205 10.0504 2.94059C9.87752 3.40146 9.87206 3.80276 9.87206 15.9382V28.4602H22H34.1279V15.9407C34.1279 3.58241 34.1255 3.41459 33.9397 2.91132C33.6882 2.2303 33.1303 1.60818 32.4813 1.2853L31.9523 1.02208L22.1389 1.00407C14.3298 0.98972 12.2478 1.01083 11.9455 1.10735ZM14.01 4.38154C13.3254 4.8015 13.2988 4.90291 13.2982 7.10067C13.2975 9.17912 13.3279 9.34881 13.7748 9.7564C14.1543 10.1027 14.5481 10.1681 16.2542 10.1681C17.7638 10.1681 17.9184 10.1522 18.2996 9.95705C18.5264 9.84092 18.806 9.60256 18.921 9.42723C19.1211 9.12209 19.13 9.02584 19.13 7.16634C19.13 5.30158 19.1216 5.21153 18.9195 4.90769C18.8038 4.73359 18.5684 4.49513 18.3966 4.37788C18.0974 4.17357 18.0061 4.16456 16.2232 4.16503C14.4448 4.1655 14.3465 4.17507 14.01 4.38154ZM20.5187 5.31781C20.1692 5.49698 20.0116 5.89359 20.1528 6.23888C20.2152 6.39179 20.3412 6.55745 20.4327 6.60707C20.5333 6.66157 22.5415 6.69731 25.5053 6.69731H30.4113L30.6032 6.45013C30.9264 6.03382 30.8254 5.55598 30.3614 5.30552C30.0592 5.14249 20.8385 5.15393 20.5187 5.31781ZM14.7788 7.16634V8.66722H16.2138H17.6488V7.16634V5.66545H16.2138H14.7788V7.16634ZM3.52294 6.82967C2.99255 6.99796 2.58094 7.33078 2.29459 7.82297L2.04907 8.2451L2.02453 20.0908L2 31.9365L2.19969 32.4068C2.42948 32.9481 2.99329 33.4829 3.47804 33.6193C3.68301 33.6771 6.57075 33.7124 11.0987 33.7127L18.3894 33.7133V36.5085V39.3038L15.4529 40.4731C13.03 41.4378 12.4931 41.6843 12.3835 41.8821C12.153 42.2981 12.4041 42.8402 12.8838 42.9622C13.0414 43.0023 14.2626 42.5582 17.1265 41.4191C19.3382 40.5394 21.35 39.7928 21.5971 39.76C22.3262 39.6632 23.1033 39.9095 27.0953 41.5024C29.1594 42.3261 30.9423 43 31.0573 43C31.5603 43 31.893 42.2588 31.5879 41.8176C31.5003 41.6909 30.4584 41.2286 28.5328 40.4622L25.6106 39.2991V36.5062V33.7133L32.9013 33.7127C37.4292 33.7124 40.317 33.6771 40.522 33.6193C41.0067 33.4829 41.5705 32.9481 41.8003 32.4068L42 31.9365L41.9755 20.0908L41.9509 8.2451L41.7022 7.81641C41.4204 7.33068 40.9218 6.94805 40.3771 6.79937C40.1617 6.74065 39.0863 6.69815 37.808 6.69787L35.6092 6.69731V8.62032V10.5433H36.3999C37.383 10.5433 37.8298 10.7397 38.1091 11.2941C38.2943 11.6621 38.2965 11.7862 38.2723 20.3382C38.2478 28.9874 38.2473 29.01 38.0529 29.2741C37.9457 29.4198 37.7166 29.6234 37.5437 29.7265C37.2328 29.9121 37.0629 29.9141 22 29.9141C6.93709 29.9141 6.76721 29.9121 6.45633 29.7265C6.28339 29.6234 6.05425 29.4198 5.94714 29.2741C5.75272 29.01 5.75216 28.9874 5.72772 20.3382C5.70347 11.7862 5.70569 11.6621 5.89094 11.2941C6.17016 10.7397 6.61704 10.5433 7.60015 10.5433H8.39078V8.62032V6.69731L6.14572 6.70359C4.5989 6.70791 3.78318 6.74712 3.52294 6.82967ZM20.4027 7.72767C20.2743 7.83001 20.1429 8.02034 20.1105 8.15064C20.0431 8.42314 20.2509 8.89639 20.4766 8.98419C20.6722 9.06027 27.4939 9.06027 27.6895 8.98419C27.9152 8.89639 28.123 8.42314 28.0555 8.15064C28.0232 8.02034 27.8918 7.83001 27.7634 7.72767C27.54 7.54963 27.3805 7.54156 24.083 7.54156C20.7856 7.54156 20.6261 7.54963 20.4027 7.72767ZM7.18724 20.2522V28.4602H7.78901H8.39078V20.2522V12.0442H7.78901H7.18724V20.2522ZM35.6319 20.2287L35.6555 28.4133L36.2341 28.4412L36.8128 28.4691V20.2567V12.0442H36.2105H35.6082L35.6319 20.2287ZM14.2866 12.5516C14.0923 12.6239 13.8484 12.7608 13.7448 12.8559C13.3313 13.235 13.2975 13.4343 13.2982 15.4869C13.2988 17.6275 13.313 17.6908 13.8988 18.1582C14.1616 18.3679 14.2442 18.3772 16.0967 18.4048C17.9294 18.4322 18.0388 18.4237 18.3798 18.2296C18.5767 18.1175 18.8261 17.8666 18.9339 17.6722C19.116 17.3441 19.13 17.1805 19.13 15.3989C19.13 13.5625 19.121 13.4655 18.9214 13.1654C18.5023 12.5353 18.2668 12.4691 16.3526 12.4434C15.0674 12.426 14.5518 12.4531 14.2866 12.5516ZM20.3583 13.7295C20.0989 13.9744 20.0315 14.2184 20.1419 14.5128C20.3492 15.0651 20.2235 15.0533 25.56 15.025L30.4412 14.9991L30.6182 14.7776C30.8645 14.4693 30.8437 14.0548 30.5678 13.7754L30.3406 13.5451H25.4471C20.7097 13.5451 20.5474 13.551 20.3583 13.7295ZM14.7788 15.4212V16.9221H16.2138H17.6488V15.4212V13.9203H16.2138H14.7788V15.4212ZM20.4473 15.953C20.248 16.0343 20.0476 16.5277 20.1105 16.782C20.1429 16.9123 20.2743 17.1027 20.4027 17.205C20.6261 17.3831 20.7856 17.3911 24.083 17.3911C27.3805 17.3911 27.54 17.3831 27.7634 17.205C27.8918 17.1027 28.0232 16.9123 28.0555 16.782C28.123 16.5095 27.9152 16.0363 27.6895 15.9485C27.5113 15.8793 20.6178 15.8835 20.4473 15.953ZM14.0241 20.9546C13.8381 21.0557 13.5986 21.2817 13.4917 21.4568C13.3107 21.7536 13.2975 21.9083 13.2975 23.7436C13.2975 25.6304 13.3062 25.7253 13.5065 26.0308C13.6215 26.2061 13.9028 26.4466 14.1315 26.5652C14.529 26.7714 14.6249 26.7796 16.3063 26.7528C18.2711 26.7215 18.5012 26.6575 18.9214 26.0257C19.1211 25.7254 19.13 25.6295 19.13 23.7699C19.13 21.9102 19.1211 21.8145 18.9217 21.5176C18.4623 20.8335 18.4036 20.8175 16.2767 20.7929C14.5275 20.7726 14.333 20.7866 14.0241 20.9546ZM20.5618 21.8893C20.0901 22.083 19.9672 22.7421 20.3336 23.1133C20.5141 23.2962 20.6421 23.3009 25.465 23.3009H30.4113L30.6032 23.0537C30.9251 22.6391 30.8459 22.1613 30.4181 21.9372C30.1978 21.8218 29.408 21.8009 25.4532 21.8059C22.8665 21.8092 20.6654 21.8467 20.5618 21.8893ZM14.7788 23.7699V25.2708H16.2138H17.6488V23.7699V22.269H16.2138H14.7788V23.7699ZM20.5187 24.2665C20.1692 24.4457 20.0116 24.8423 20.1528 25.1876C20.2152 25.3405 20.3412 25.5061 20.4327 25.5558C20.6153 25.6548 27.4398 25.6848 27.6895 25.5877C27.9152 25.4999 28.123 25.0267 28.0555 24.7542C28.0232 24.6239 27.8918 24.4336 27.7634 24.3312C27.54 24.1533 27.3818 24.1452 24.14 24.1465C21.5934 24.1476 20.6926 24.1774 20.5187 24.2665ZM19.8707 36.2091C19.8707 38.5494 19.8808 38.7008 20.0327 38.6374C21.1599 38.1668 22.8401 38.1668 23.9673 38.6374C24.1192 38.7008 24.1293 38.5494 24.1293 36.2091V33.7133H22H19.8707V36.2091Z" fill="url(#paint0_linear_63_4833)"/>
<defs>
<linearGradient id="paint0_linear_63_4833" x1="22" y1="1" x2="22" y2="43" gradientUnits="userSpaceOnUse">
<stop stop-color="#2891EE"/>
<stop offset="0.480021" stop-color="#1E70B8"/>
<stop offset="1" stop-color="#0061B6"/>
</linearGradient>
</defs>
</svg>
