<svg width="44" height="44" viewBox="0 0 44 44" fill="none" xmlns="http://www.w3.org/2000/svg">
<g clip-path="url(#clip0_394_122)">
<path d="M42.1667 44H9.16667C4.10667 44 0 39.8933 0 34.8333V1.83333C0 0.825 0.825 0 1.83333 0C2.84167 0 3.66667 0.825 3.66667 1.83333V34.8333C3.66667 37.8583 6.14167 40.3333 9.16667 40.3333H42.1667C43.175 40.3333 44 41.1583 44 42.1667C44 43.175 43.175 44 42.1667 44ZM29.3333 5.5C29.3333 2.475 31.8083 0 34.8333 0C37.8583 0 40.3333 2.475 40.3333 5.5C40.3333 8.525 37.8583 11 34.8333 11C31.8083 11 29.3333 8.525 29.3333 5.5ZM27.5 23.8333C27.5 20.8083 29.975 18.3333 33 18.3333C36.025 18.3333 38.5 20.8083 38.5 23.8333C38.5 26.8583 36.025 29.3333 33 29.3333C29.975 29.3333 27.5 26.8583 27.5 23.8333ZM12.8333 11.9167C12.8333 9.38667 14.8867 7.33333 17.4167 7.33333C19.9467 7.33333 22 9.38667 22 11.9167C22 14.4467 19.9467 16.5 17.4167 16.5C14.8867 16.5 12.8333 14.4467 12.8333 11.9167ZM11 28.4167C11 25.8867 13.0533 23.8333 15.5833 23.8333C18.1133 23.8333 20.1667 25.8867 20.1667 28.4167C20.1667 30.9467 18.1133 33 15.5833 33C13.0533 33 11 30.9467 11 28.4167Z" fill="url(#paint0_linear_394_122)"/>
</g>
<defs>
<linearGradient id="paint0_linear_394_122" x1="22" y1="0" x2="22" y2="44" gradientUnits="userSpaceOnUse">
<stop stop-color="#2891EE"/>
<stop offset="0.480021" stop-color="#1E70B8"/>
<stop offset="1" stop-color="#0061B6"/>
</linearGradient>
<clipPath id="clip0_394_122">
<rect width="44" height="44" fill="white"/>
</clipPath>
</defs>
</svg>
