<svg width="44" height="44" viewBox="0 0 44 44" fill="none" xmlns="http://www.w3.org/2000/svg">
<g clip-path="url(#clip0_394_117)">
<path d="M10.0833 14.6667H4.58333C2.0515 14.6667 0 12.6152 0 10.0833V4.58333C0 2.0515 2.0515 0 4.58333 0H10.0833C12.6152 0 14.6667 2.0515 14.6667 4.58333V10.0833C14.6667 12.6152 12.6152 14.6667 10.0833 14.6667ZM10.0833 33H4.58333C2.0515 33 0 30.9485 0 28.4167V22.9167C0 20.3848 2.0515 18.3333 4.58333 18.3333H10.0833C12.6152 18.3333 14.6667 20.3848 14.6667 22.9167V28.4167C14.6667 30.9485 12.6152 33 10.0833 33ZM28.4167 0H22.9167C20.3848 0 18.3333 2.0515 18.3333 4.58333V10.0833C18.3333 12.6152 20.3848 14.6667 22.9167 14.6667H28.4167C30.9485 14.6667 33 12.6152 33 10.0833V4.58333C33 2.0515 30.9485 0 28.4167 0ZM27.5 8.25C27.5 8.756 27.0893 9.16667 26.5833 9.16667H24.75C24.244 9.16667 23.8333 8.756 23.8333 8.25V6.41667C23.8333 5.91067 24.244 5.5 24.75 5.5H26.5833C27.0893 5.5 27.5 5.91067 27.5 6.41667V8.25ZM27.5 22.1962C27.5 20.3702 26.2515 18.6762 24.4493 18.3828C22.1522 18.0088 20.1667 19.7725 20.1667 22V38.1645C18.194 36.5402 16.2965 34.9525 16.2342 34.8938C14.5438 33.3153 11.8837 33.4033 10.3033 35.0937C8.72117 36.7858 8.80183 39.4423 10.483 41.0153L13.8215 44H44.0018V42.9128C44.0018 39.1453 41.6955 35.761 38.1883 34.3823L27.5018 30.1803V22.1962H27.5Z" fill="url(#paint0_linear_394_117)"/>
</g>
<defs>
<linearGradient id="paint0_linear_394_117" x1="22.0009" y1="0" x2="22.0009" y2="44" gradientUnits="userSpaceOnUse">
<stop stop-color="#2891EE"/>
<stop offset="0.480021" stop-color="#1E70B8"/>
<stop offset="1" stop-color="#0061B6"/>
</linearGradient>
<clipPath id="clip0_394_117">
<rect width="44" height="44" fill="white"/>
</clipPath>
</defs>
</svg>
