<svg width="44" height="44" viewBox="0 0 44 44" fill="none" xmlns="http://www.w3.org/2000/svg">
<g clip-path="url(#clip0_394_101)">
<path d="M16.5 22C22.5665 22 27.5 17.0665 27.5 11C27.5 4.9335 22.5665 0 16.5 0C10.4335 0 5.5 4.9335 5.5 11C5.5 17.0665 10.4335 22 16.5 22ZM29.491 44H23.8333V38.3423L37.1708 25.0048C38.7328 23.4428 41.2665 23.4428 42.8285 25.0048C44.3905 26.5668 44.3905 29.1005 42.8285 30.6625L29.491 44ZM20.1667 44H0V34.8333C0 29.7788 4.11217 25.6667 9.16667 25.6667H23.8333C25.9325 25.6667 27.8465 26.4055 29.3938 27.5972L20.1667 36.8243V44Z" fill="url(#paint0_linear_394_101)"/>
</g>
<defs>
<linearGradient id="paint0_linear_394_101" x1="22" y1="0" x2="22" y2="44" gradientUnits="userSpaceOnUse">
<stop stop-color="#2891EE"/>
<stop offset="0.480021" stop-color="#1E70B8"/>
<stop offset="1" stop-color="#0061B6"/>
</linearGradient>
<clipPath id="clip0_394_101">
<rect width="44" height="44" fill="white"/>
</clipPath>
</defs>
</svg>
