<svg width="44" height="44" viewBox="0 0 44 44" fill="none" xmlns="http://www.w3.org/2000/svg">
<g clip-path="url(#clip0_63_4857)">
<path fill-rule="evenodd" clip-rule="evenodd" d="M31.5901 0.275779C31.3517 0.51417 31.286 0.66731 31.198 1.18895C31.0999 1.77006 31.0717 1.82549 30.8116 1.94958C30.533 2.08244 30.5268 2.08055 29.9509 1.68627C29.2545 1.2094 28.9647 1.1795 28.4799 1.53451C27.9004 1.95895 26.4701 3.49758 26.4556 3.71216C26.4266 4.14116 26.4926 4.34105 26.8239 4.82892C27.1073 5.24615 27.1583 5.38227 27.1115 5.59548C27.0462 5.89257 26.8952 5.97361 26.1737 6.09899C25.8638 6.15279 25.5855 6.26098 25.4646 6.37451C25.2539 6.57251 25.0953 7.01818 25.0945 7.41469L25.094 7.6536L24.0054 7.62954L22.9167 7.60547L22.7587 7.13282C22.4558 6.22583 21.6844 5.43555 20.7354 5.05992C20.2559 4.87008 20.1288 4.86209 17.0997 4.83072C15.2362 4.81139 13.703 4.8339 13.3264 4.88615C11.8358 5.09266 10.8654 5.94903 10.3666 7.49805C10.3263 7.62335 10.2121 7.64844 9.68198 7.64844C7.94518 7.64844 5.94267 8.5501 4.55254 9.9581C3.04683 11.4831 2.30356 13.3211 2.30665 15.5117C2.31163 19.013 4.52272 21.9405 7.96692 23.0056L8.72292 23.2395L12.4872 23.2858L16.2515 23.332L16.4595 23.8443C16.881 24.8818 17.5911 25.5692 18.5503 25.8687C19.057 26.0268 19.3469 26.0391 22.5589 26.0391C25.7849 26.0391 26.0585 26.0273 26.5674 25.8668C27.5602 25.5536 28.3575 24.778 28.687 23.8047L28.847 23.332L31.8474 23.3329C34.7169 23.3338 34.8777 23.3424 35.5305 23.5306C36.6681 23.8585 37.4979 24.3454 38.3369 25.1774C39.1707 26.0043 39.6596 26.7675 40.0175 27.8008C40.2341 28.4265 40.2558 28.6003 40.2587 29.7344C40.2615 30.803 40.2334 31.0723 40.0619 31.625C39.5174 33.3796 38.2626 34.8529 36.662 35.6172C35.666 36.0928 35.1709 36.1932 33.5803 36.2416C32.2171 36.2832 32.1409 36.277 32.1408 36.1251C32.1407 35.8041 31.6245 34.8835 31.2291 34.4992C31.0069 34.2832 30.6474 34.0169 30.4302 33.9073C29.6821 33.5298 29.3092 33.5004 25.6526 33.5309C22.2862 33.5589 22.2048 33.5637 21.718 33.7597C21.0479 34.0295 20.2788 34.7507 19.9416 35.4257C19.7977 35.7137 19.6799 36.0205 19.6799 36.1075C19.6799 36.2557 19.5743 36.2656 18.0094 36.2656H16.339L16.2794 35.8574C15.8916 33.1969 13.7871 30.876 11.1012 30.1465C10.2187 29.9068 8.5617 29.8913 7.69167 30.1146C4.48482 30.9376 2.32178 33.6922 2.32178 36.9531C2.32178 40.4387 4.80313 43.3497 8.25026 43.9082C10.6578 44.2983 13.1756 43.3407 14.745 41.438C15.5051 40.5164 16.1194 39.1646 16.2876 38.0429L16.3479 37.6406H18.014C19.5744 37.6406 19.6799 37.6507 19.6799 37.7988C19.6799 38.0904 20.205 39.0115 20.5917 39.3981C20.8022 39.6088 21.2335 39.9085 21.55 40.0643L22.1256 40.3477H25.9086H29.6917L30.2675 40.0749C30.5842 39.9248 31.0215 39.6239 31.2392 39.4062C31.6175 39.0279 32.1407 38.0969 32.1408 37.8017C32.1409 37.6796 32.3327 37.6565 33.6663 37.6191C34.9877 37.582 35.2926 37.5461 35.9469 37.3501C38.6708 36.5341 40.6647 34.5312 41.4323 31.8398C41.6573 31.0509 41.7395 29.4418 41.5992 28.5721C41.1666 25.8899 39.3182 23.5351 36.8693 22.5459C35.5341 22.0066 35.2803 21.9754 31.9046 21.935C29.0119 21.9005 28.7893 21.8872 28.7893 21.7478C28.7893 21.6653 28.6716 21.3621 28.5276 21.0741C28.1911 20.4006 27.4419 19.6987 26.7619 19.4197C26.2591 19.2135 26.2212 19.2112 22.8866 19.1824C19.2696 19.1512 18.8636 19.1833 18.0897 19.5623C17.303 19.9475 16.3325 21.1638 16.3292 21.7687C16.3284 21.9166 16.1501 21.9227 12.6116 21.8949C8.99568 21.8665 8.87846 21.8603 8.29323 21.6666C5.98185 20.9014 4.32386 19.1008 3.82164 16.8102C3.60525 15.8235 3.6777 14.378 3.98999 13.4492C4.53415 11.8308 5.77165 10.3956 7.27728 9.63686C8.14542 9.19936 10.269 8.79442 10.3573 9.04957C10.6555 9.91212 10.8064 10.1967 11.1849 10.611C11.724 11.2008 12.4761 11.587 13.2896 11.6919C14.1006 11.7964 19.2416 11.7899 19.9781 11.6835C21.3342 11.4875 22.3449 10.6701 22.7666 9.42847L22.9188 8.98047L23.9941 8.9565L25.0695 8.93252L25.1219 9.37562C25.2129 10.1433 25.5087 10.3998 26.4484 10.526C26.921 10.5895 27.1565 10.7858 27.1565 11.1163C27.1565 11.2065 27.0166 11.475 26.8457 11.7129C26.4403 12.2771 26.3562 12.577 26.5061 12.9223C26.5704 13.0703 27.0917 13.6555 27.6646 14.2227C28.6676 15.2158 28.7195 15.2538 29.07 15.2525C29.3552 15.2512 29.5488 15.1724 29.9662 14.8872C30.5499 14.4884 30.5773 14.4804 30.8804 14.6185C31.0575 14.6991 31.1047 14.8106 31.1926 15.3558C31.2722 15.8495 31.3525 16.0611 31.5394 16.2706L31.7826 16.543L33.2875 16.57C35.3062 16.6061 35.4287 16.5398 35.6605 15.2856C35.7472 14.817 35.8034 14.6988 35.977 14.6196C36.2817 14.4807 36.3101 14.4887 36.8699 14.8689C37.4798 15.283 37.7863 15.36 38.1232 15.1836C38.2596 15.1121 38.8258 14.5924 39.3811 14.0286C40.3389 13.0564 40.3909 12.9855 40.3909 12.6518C40.3909 12.3759 40.3076 12.1784 40.0055 11.737C39.6506 11.2186 39.6284 11.1554 39.7244 10.9367C39.8633 10.6206 39.8787 10.6126 40.5863 10.4861C41.0545 10.4025 41.2563 10.3197 41.4397 10.1363L41.6799 9.89605V8.29297V6.6899L41.4382 6.44815C41.2693 6.2792 41.0427 6.17582 40.6863 6.10509C39.9164 5.95229 39.8834 5.93691 39.7433 5.66612C39.6169 5.42163 39.6241 5.39886 40.0021 4.83528C40.3006 4.39038 40.3909 4.17648 40.3909 3.91463C40.3909 3.59142 40.3307 3.51322 39.2487 2.43126C37.8807 1.06331 37.8391 1.0499 36.9044 1.67673C36.3614 2.04076 36.3093 2.05829 36.0477 1.96368C35.7842 1.86837 35.7616 1.8254 35.6299 1.16893C35.5286 0.663787 35.432 0.416115 35.275 0.258935C35.0623 0.0460681 35.0365 0.0426306 33.4679 0.0161619L31.8765 -0.0106506L31.5901 0.275779ZM32.4215 4.34346C31.4002 4.61846 30.5712 5.22397 29.9886 6.12056C29.5335 6.82087 29.3614 7.52968 29.4049 8.52432C29.436 9.23554 29.4774 9.4087 29.7574 9.99823C30.8902 12.3837 33.8834 13.0942 35.949 11.4682C36.5574 10.9893 37.0697 10.2211 37.3113 9.4258C37.458 8.94292 37.4837 8.68408 37.4495 8.03155C37.4132 7.33761 37.366 7.14253 37.0964 6.575C36.2536 4.80013 34.2596 3.84837 32.4215 4.34346ZM32.7854 5.66148C32.0629 5.85244 31.3411 6.43011 31.0007 7.08985C30.7508 7.57428 30.6973 8.6008 30.8916 9.18569C31.0887 9.77892 31.7421 10.487 32.3325 10.7473C32.9435 11.0165 33.9024 11.0263 34.4717 10.7691C35.4218 10.3399 36.0069 9.49369 36.0754 8.44964C36.1744 6.9392 35.0739 5.70222 33.5589 5.62101C33.2753 5.60579 32.9272 5.62401 32.7854 5.66148ZM13.9221 7.82032C13.8157 7.92671 13.7503 8.10675 13.7503 8.29297C13.7503 8.6998 13.9983 8.93751 14.4228 8.93751C15.0469 8.93751 15.363 8.24554 14.9264 7.83527C14.6664 7.59112 14.1589 7.58356 13.9221 7.82032ZM16.0768 7.87489C15.9789 7.99941 15.8987 8.18753 15.8987 8.29297C15.8987 8.39842 15.9789 8.58654 16.0768 8.71106C16.4269 9.15604 17.2137 8.9455 17.3231 8.37754C17.4029 7.96349 17.1031 7.64844 16.6292 7.64844C16.3272 7.64844 16.2205 7.69219 16.0768 7.87489ZM18.3199 7.8473C17.9063 8.28765 18.2208 8.93751 18.8476 8.93751C19.2595 8.93751 19.5081 8.6949 19.5081 8.29297C19.5081 7.88615 19.2601 7.64844 18.8355 7.64844C18.603 7.64844 18.4521 7.70662 18.3199 7.8473ZM20.0508 22.0006C19.8176 22.0945 19.6799 22.342 19.6799 22.6669C19.6799 23.2454 20.5157 23.5218 20.8768 23.0626C21.1756 22.6828 21.1021 22.2451 20.705 22.0398C20.4316 21.8984 20.321 21.8918 20.0508 22.0006ZM22.0796 22.1653C21.7964 22.4485 21.7735 22.5898 21.9541 22.9391C22.2561 23.5232 23.1289 23.3711 23.2562 22.7124C23.3008 22.4816 23.2668 22.3939 23.0482 22.1753C22.7118 21.839 22.409 21.8359 22.0796 22.1653ZM24.4495 22.0098C24.0096 22.2594 23.9313 22.7357 24.2737 23.0781C24.708 23.5124 25.4378 23.2296 25.4378 22.627C25.4378 22.1271 24.8689 21.7718 24.4495 22.0098ZM11.8308 34.4824C11.7152 34.5888 10.9948 35.4009 10.2301 36.2871C9.46524 37.1734 8.81324 37.8983 8.78118 37.898C8.74913 37.8978 8.27295 37.4763 7.72295 36.9616C7.17295 36.4468 6.63833 35.9988 6.53495 35.966C6.09168 35.8253 5.58396 36.3342 5.70196 36.8011C5.72903 36.9084 6.37519 37.5859 7.1378 38.3066C8.35794 39.4599 8.55895 39.6172 8.8122 39.6172C8.9901 39.6172 9.18174 39.5433 9.31382 39.4238C9.43138 39.3174 10.3037 38.3299 11.2522 37.2293C13.1329 35.0471 13.1972 34.9313 12.7658 34.5C12.4975 34.2317 12.1114 34.2244 11.8308 34.4824ZM23.2425 36.4766C23.1095 36.6096 23.0315 36.7857 23.0315 36.9531C23.0315 37.1205 23.1095 37.2967 23.2425 37.4297C23.3754 37.5627 23.5516 37.6406 23.719 37.6406C23.8864 37.6406 24.0626 37.5627 24.1955 37.4297C24.3286 37.2967 24.4065 37.1205 24.4065 36.9531C24.4065 36.7857 24.3286 36.6096 24.1955 36.4766C24.0626 36.3436 23.8864 36.2656 23.719 36.2656C23.5516 36.2656 23.3754 36.3436 23.2425 36.4766ZM25.4712 36.4669C24.8583 36.994 25.5714 37.9431 26.291 37.558C26.5459 37.4215 26.6799 36.997 26.5596 36.7065C26.3732 36.2565 25.8497 36.1413 25.4712 36.4669ZM27.6253 36.4766C27.004 37.0978 27.8694 38.008 28.5629 37.4625C28.7376 37.3252 28.7893 37.2086 28.7893 36.9531C28.7893 36.3355 28.0635 36.0383 27.6253 36.4766Z" fill="url(#paint0_linear_63_4857)"/>
</g>
<defs>
<linearGradient id="paint0_linear_63_4857" x1="21.9933" y1="-0.0106506" x2="21.9933" y2="43.9942" gradientUnits="userSpaceOnUse">
<stop stop-color="#2891EE"/>
<stop offset="0.480021" stop-color="#1E70B8"/>
<stop offset="1" stop-color="#0061B6"/>
</linearGradient>
<clipPath id="clip0_63_4857">
<rect width="44" height="44" fill="white"/>
</clipPath>
</defs>
</svg>
