<svg width="44" height="44" viewBox="0 0 44 44" fill="none" xmlns="http://www.w3.org/2000/svg">
<path fill-rule="evenodd" clip-rule="evenodd" d="M35.0562 1.29215C34.5385 1.52645 34.1683 1.86909 33.9046 2.35767C33.7082 2.72159 33.7025 2.83365 33.6762 6.85995L33.6492 10.989H30.9401H28.2309L28.3057 11.5255C28.4273 12.3975 28.3707 14.324 28.1997 15.1413C27.5061 18.4552 25.5814 21.1291 22.6923 22.7929L21.8821 23.2594L20.7479 26.0588C19.6444 28.7823 19.5996 28.8724 19.0924 29.3864C18.5252 29.9612 17.9428 30.2111 17.1706 30.2111C16.37 30.2111 15.3876 29.6821 14.9474 29.0139C14.8233 28.8256 14.2329 27.4748 13.6355 26.0121C13.038 24.5495 12.5306 23.3076 12.508 23.2524C12.4853 23.1973 12.3027 23.0797 12.1022 22.9913C11.3777 22.6717 10.2964 21.884 9.42429 21.0407C7.92837 19.5941 6.90051 17.8296 6.35126 15.7657C6.07486 14.7269 5.9543 12.6982 6.10435 11.6107L6.19235 10.9728L4.78181 11.0042C3.40038 11.035 3.35811 11.0421 2.73972 11.3467C2.29041 11.5681 2.00412 11.7896 1.74713 12.1146C1.0372 13.0127 1.08516 11.8817 1.11222 27.0954L1.13648 40.7219L1.41671 41.2698C1.76197 41.9448 2.4762 42.555 3.15823 42.7575C3.58776 42.885 5.5915 42.9013 20.6795 42.8999C39.5612 42.8981 38.3668 42.9372 39.7099 42.2762C40.7078 41.7851 41.8058 40.6939 42.273 39.7289C42.9502 38.3304 42.9031 39.681 42.8964 21.8308C42.8922 10.7628 42.8591 5.60146 42.7901 5.26806C42.5734 4.22008 41.8144 2.99088 40.9594 2.30281C39.8246 1.38947 38.8223 1.09704 36.8376 1.10002C35.6703 1.10179 35.4162 1.12923 35.0562 1.29215ZM35.5442 2.64853C35.1393 2.82806 35.1496 2.45677 35.1496 16.9344C35.1496 30.0894 35.1565 30.6467 35.3223 30.9561C35.6421 31.5522 35.8583 31.6407 37.1798 31.7157C37.9455 31.7593 38.5848 31.851 38.9754 31.9736C39.6365 32.181 40.5503 32.6921 40.9628 33.0851C41.1685 33.2811 41.2405 33.3069 41.3022 33.2069C41.4613 32.9496 41.5072 26.989 41.4321 16.3494L41.355 5.42697L41.003 4.71491C40.5869 3.87333 40.0497 3.35209 39.1621 2.92893C38.5736 2.64834 38.5124 2.6391 37.1092 2.61783C36.3137 2.60579 35.6094 2.6196 35.5442 2.64853ZM15.8293 3.43346C13.6895 3.73318 11.4908 4.88166 10.1059 6.42307C9.08593 7.5582 8.25114 9.12481 7.8358 10.6832C7.62118 11.4885 7.59234 11.7761 7.59048 13.1351C7.58852 14.5057 7.61502 14.7743 7.83197 15.5807C8.54098 18.2161 10.2041 20.2605 12.7495 21.6255C13.2357 21.8863 13.593 22.1472 13.6962 22.3167C13.7873 22.4666 14.3559 23.8107 14.9597 25.3037C16.103 28.1307 16.3356 28.5366 16.8924 28.6763C17.0292 28.7106 17.2773 28.7129 17.4438 28.6814C18.079 28.5611 18.1926 28.3714 19.3775 25.4523C19.992 23.9383 20.5673 22.5593 20.6562 22.388C20.7696 22.1687 20.9847 21.9928 21.3816 21.7945C23.5709 20.7006 25.3129 18.8696 26.1603 16.7717C26.6784 15.4892 26.783 14.8811 26.7858 13.1351C26.7882 11.6587 26.7649 11.4154 26.543 10.5965C25.3918 6.3487 21.8748 3.52509 17.5598 3.38447C16.9439 3.36432 16.1652 3.38643 15.8293 3.43346ZM15.6657 7.53851C14.6753 7.79801 13.9215 8.23499 13.1616 8.99016C10.9766 11.162 10.9802 14.9161 13.1696 17.1054C14.34 18.2758 15.7614 18.7938 17.5598 18.7053C18.7093 18.6487 19.4243 18.4141 20.3661 17.7841C21.2703 17.1795 21.8213 16.5391 22.319 15.5146C23.2711 13.555 23.1012 11.4828 21.8436 9.71426C21.0775 8.63697 19.8767 7.8163 18.59 7.49064C17.8251 7.29702 16.5051 7.31858 15.6657 7.53851ZM16.1459 8.96935C14.9181 9.28232 13.9196 10.0948 13.4068 11.1981C12.3202 13.5356 13.4324 16.2008 15.8335 17.0136C16.5171 17.2451 17.8324 17.2523 18.5591 17.0286C19.7631 16.658 20.8517 15.569 21.219 14.3677C21.433 13.668 21.4341 12.4192 21.2214 11.7241C20.8662 10.5637 19.9111 9.56039 18.7373 9.11445C18.0846 8.86652 16.8259 8.79607 16.1459 8.96935Z" fill="url(#paint0_linear_63_4823)"/>
<defs>
<linearGradient id="paint0_linear_63_4823" x1="21.9996" y1="1.1" x2="21.9996" y2="42.9" gradientUnits="userSpaceOnUse">
<stop stop-color="#2891EE"/>
<stop offset="0.480021" stop-color="#1E70B8"/>
<stop offset="1" stop-color="#0061B6"/>
</linearGradient>
</defs>
</svg>
