<svg width="42" height="44" viewBox="0 0 42 44" fill="none" xmlns="http://www.w3.org/2000/svg">
<path fill-rule="evenodd" clip-rule="evenodd" d="M10.678 0.194794C9.28615 0.635383 8.25551 1.86551 8.04185 3.34117C7.98357 3.74341 7.94641 9.17658 7.94525 17.4623L7.94332 30.9296H5.23819C2.24094 30.9296 2.17204 30.941 1.49401 31.5527C0.852374 32.1316 0.752881 32.5303 0.760118 34.4952C0.766777 36.3318 0.855269 36.9205 1.29783 38.0746C2.18921 40.3989 4.16904 42.1812 6.66072 42.9024L7.41256 43.12H21.5501H35.6876L36.4275 42.8678C37.5431 42.4874 38.4067 41.9623 39.1693 41.2006C40.3153 40.0557 40.933 38.7954 41.1345 37.1909C41.2754 36.0692 41.2746 4.14246 41.1337 3.27536C40.8926 1.79159 39.8823 0.626132 38.4555 0.186121C37.8535 0.000421762 37.5177 -0.00410736 24.5556 0.00119283C11.6544 0.00649301 11.2556 0.0119858 10.678 0.194794ZM13.3474 6.38435C12.9831 6.56841 12.8188 6.97584 12.966 7.33057C13.0311 7.48765 13.1624 7.65783 13.2578 7.70881C13.4934 7.83476 35.6863 7.83476 35.922 7.70881C36.0173 7.65783 36.1487 7.48765 36.2138 7.33057C36.361 6.97584 36.1966 6.56841 35.8323 6.38435C35.479 6.20587 13.7007 6.20587 13.3474 6.38435ZM13.2394 12.5242C13.1536 12.5743 13.0302 12.7432 12.9654 12.8995C12.8189 13.2527 12.9838 13.6606 13.3474 13.8443C13.7007 14.0228 35.479 14.0228 35.8323 13.8443C36.1966 13.6602 36.361 13.2528 36.2138 12.8981C36.1487 12.741 36.0173 12.5708 35.922 12.5198C35.6889 12.3953 13.453 12.3996 13.2394 12.5242ZM13.147 18.7799C12.841 19.0855 12.8036 19.2633 12.9771 19.5887C13.2246 20.0525 12.7401 20.0339 24.5578 20.037C30.6971 20.0388 35.7904 20.0131 35.8762 19.9803C36.0522 19.9128 36.3148 19.4565 36.3148 19.2184C36.3148 19.1321 36.1879 18.9349 36.0328 18.7799L35.7507 18.4982H24.5899H13.4291L13.147 18.7799ZM13.4922 24.6379C13.2165 24.7061 12.9881 24.9318 12.9198 25.2037C12.8517 25.4748 13.0726 25.9629 13.3035 26.0514C13.3894 26.0843 18.4887 26.1112 24.6353 26.1112C35.4106 26.1112 35.8189 26.1048 36.0339 25.9309C36.3355 25.6871 36.3395 25.1294 36.0419 24.8323L35.827 24.6175L24.7561 24.6039C18.6671 24.5962 13.5983 24.6116 13.4922 24.6379ZM2.54463 32.6588C2.27192 32.9311 2.21537 33.4015 2.27857 34.8722C2.34381 36.3894 2.49223 37.0414 3.01556 38.1089C3.72436 39.5549 5.04181 40.6961 6.67741 41.2808L7.50907 41.5781L18.804 41.6045L30.0991 41.6309L29.5631 41.0597C28.8772 40.3285 28.3672 39.467 28.0445 38.4944C27.8033 37.7669 27.7857 37.5856 27.7334 35.2814C27.6784 32.8622 27.6758 32.8377 27.4501 32.6554C27.2286 32.4766 26.8844 32.4715 14.9772 32.4715C2.97802 32.4715 2.72846 32.4752 2.54463 32.6588Z" fill="url(#paint0_linear_63_4722)"/>
<defs>
<linearGradient id="paint0_linear_63_4722" x1="20.9998" y1="0" x2="20.9998" y2="43.12" gradientUnits="userSpaceOnUse">
<stop stop-color="#2891EE"/>
<stop offset="0.480021" stop-color="#1E70B8"/>
<stop offset="1" stop-color="#0061B6"/>
</linearGradient>
</defs>
</svg>
