<svg width="44" height="44" viewBox="0 0 44 44" fill="none" xmlns="http://www.w3.org/2000/svg">
<path fill-rule="evenodd" clip-rule="evenodd" d="M15.3052 1.22965C14.8496 1.39208 14.2794 1.89311 14.0534 2.32956C13.9427 2.54332 13.8356 2.98183 13.8042 3.34943L13.7494 3.99423L12.3662 3.99684C11.1133 3.99926 10.9429 4.0197 10.5569 4.21376C10.0671 4.46007 9.56707 5.0544 9.42473 5.55934C9.37084 5.75051 9.32652 6.33448 9.32623 6.85714L9.32566 7.80741L6.41343 7.8368L3.5012 7.86619L2.95948 8.11632C2.25752 8.44045 1.62971 9.08189 1.3524 9.75822L1.13354 10.292L1.10579 24.5203C1.08713 34.093 1.11062 38.9928 1.17767 39.495C1.39663 41.1355 2.46691 42.3536 4.05524 42.7703C4.4603 42.8765 7.62729 42.8984 22.7384 42.8993C42.5375 42.9005 41.3304 42.9319 42.0427 42.3967C42.2039 42.2756 42.4626 41.951 42.6175 41.6754L42.8992 41.1744V28.8121C42.8992 15.1969 42.9374 16.0515 42.2958 15.3497C41.858 14.8708 41.3497 14.6503 40.5049 14.573L39.8336 14.5115L39.8037 12.3526L39.7739 10.1938L39.4641 9.57451C38.9542 8.55474 38.0554 7.96116 36.8539 7.8506L36.2357 7.79378L36.2053 5.26423C36.1765 2.86156 36.1645 2.71527 35.9651 2.34813C35.6998 1.85933 35.1007 1.35038 34.6258 1.21024C34.0877 1.05135 15.7534 1.06982 15.3052 1.22965ZM15.6628 2.71433C15.2916 2.99507 15.2922 2.98127 15.2922 11.6387V20.0419H19.1674C21.2988 20.0419 23.1097 20.0165 23.1917 19.9855C23.2736 19.9545 24.2316 18.9364 25.3207 17.723C26.4097 16.5096 27.4435 15.3824 27.6181 15.2183C28.2684 14.6068 28.3751 14.5894 31.7001 14.5547L34.7071 14.5232V8.87943C34.7071 3.0838 34.7015 2.99041 34.3365 2.71433C34.118 2.5491 15.8813 2.5491 15.6628 2.71433ZM11.0373 5.73288C10.8426 5.97667 10.841 6.03787 10.841 13.0103V20.0419H12.3089H13.7769V12.7644V5.48703H12.5053C11.2442 5.48703 11.2319 5.48908 11.0373 5.73288ZM18.7395 5.62026C18.2814 5.81675 18.1595 6.44578 18.5122 6.79323C18.6972 6.97545 18.8279 6.97983 24.0588 6.97983C27.3721 6.97983 29.482 6.94503 29.5892 6.88849C30.0795 6.62996 29.9555 5.78391 29.3993 5.59283C28.9175 5.42741 19.1305 5.4526 18.7395 5.62026ZM18.5723 9.03925C18.2372 9.2989 18.2294 9.78854 18.5553 10.1096L18.7877 10.3386H24.0903H29.3929L29.6406 10.1287C29.968 9.85133 29.9875 9.3936 29.6856 9.07694L29.4651 8.84584H24.1436C18.9032 8.84584 18.818 8.84882 18.5723 9.03925ZM3.54572 9.52226C3.01536 9.78621 2.72518 10.211 2.65017 10.8331C2.61806 11.1 2.60462 17.679 2.62034 25.4533L2.64884 39.5883L2.86743 40.0255C3.31662 40.9238 4.36881 41.5052 5.28046 41.3588C6.20593 41.2102 6.99001 40.5352 7.23113 39.6798C7.30406 39.421 7.33597 36.6816 7.33626 30.6423C7.33673 24.2713 7.36628 21.8791 7.4482 21.61C7.65191 20.94 8.30141 20.3668 9.15993 20.0993C9.31525 20.051 9.32566 19.7103 9.32566 14.68V9.31234H6.6466C4.05637 9.31234 3.95352 9.31934 3.54572 9.52226ZM36.2224 11.9247V14.5371H37.2641H38.3059L38.3053 12.6478C38.305 11.6087 38.2629 10.6097 38.2116 10.4278C38.0322 9.79171 37.3099 9.31234 36.5308 9.31234H36.2224V11.9247ZM18.749 12.2191C18.27 12.4772 18.1687 13.0558 18.5419 13.4013C18.7583 13.6014 18.8042 13.6041 22.0296 13.6041H25.298L25.504 13.3883C25.7069 13.1754 25.7663 12.8311 25.6511 12.5354C25.4991 12.1453 25.2034 12.1113 21.9974 12.1141C19.9668 12.1161 18.8747 12.1514 18.749 12.2191ZM29.9718 20.1466C29.8416 20.1979 29.6351 20.3317 29.5129 20.444C29.0749 20.8469 29.0246 21.0653 29.0246 22.5655C29.0246 24.1993 29.1091 24.4807 29.7189 24.8785L30.0996 25.1267L33.0643 25.157C36.4145 25.1914 36.8787 25.141 37.3442 24.6927C37.777 24.2758 37.8518 23.9082 37.8164 22.3744C37.7873 21.1218 37.7682 20.9982 37.5576 20.7074C37.097 20.0712 36.934 20.0455 33.3812 20.0498C31.5044 20.0521 30.1118 20.0917 29.9718 20.1466ZM30.54 22.561V23.5873L33.0497 23.6059C34.43 23.6162 35.7193 23.6266 35.9146 23.6293L36.2697 23.6339L36.2965 22.5843L36.3233 21.5347H33.4316H30.54V22.561ZM8.85213 32.5441V33.2905H16.1857C21.0306 33.2905 23.6072 33.2576 23.7782 33.1936C24.3166 32.9918 24.4689 32.3696 24.0702 32.0005L23.8509 31.7977H16.3516H8.85213V32.5441ZM13.7684 35.5177C13.4726 35.7537 13.4685 36.2936 13.7605 36.5814L13.9714 36.7892L18.6332 36.8172C21.1971 36.8326 23.4358 36.8199 23.608 36.7888C24.2661 36.6698 24.5268 35.9687 24.0702 35.5459L23.8509 35.3431H18.9191C14.2416 35.3431 13.976 35.3521 13.7684 35.5177Z" fill="url(#paint0_linear_63_4767)"/>
<defs>
<linearGradient id="paint0_linear_63_4767" x1="21.9996" y1="1.10001" x2="21.9996" y2="42.9" gradientUnits="userSpaceOnUse">
<stop stop-color="#2891EE"/>
<stop offset="0.480021" stop-color="#1E70B8"/>
<stop offset="1" stop-color="#0061B6"/>
</linearGradient>
</defs>
</svg>
