<svg width="44" height="44" viewBox="0 0 44 44" fill="none" xmlns="http://www.w3.org/2000/svg">
<g clip-path="url(#clip0_394_112)">
<path d="M22.0001 29.3333C26.0444 29.3333 29.3334 26.0443 29.3334 22C29.3334 17.9557 26.0444 14.6667 22.0001 14.6667C17.9557 14.6667 14.6667 17.9557 14.6667 22C14.6667 26.0443 17.9557 29.3333 22.0001 29.3333ZM22.0001 31.1667C15.9336 31.1667 11.0001 36.1002 11.0001 42.1667C11.0001 43.1805 11.8214 44 12.8334 44H31.1667C32.1787 44 33.0001 43.1805 33.0001 42.1667C33.0001 36.1002 28.0666 31.1667 22.0001 31.1667ZM10.6352 17.4515C11.0312 18.5313 9.6764 19.5378 8.75607 18.8503L6.35623 17.1783L3.96373 18.8503C3.05073 19.536 1.70507 18.546 2.09007 17.4698L2.94257 14.8005L0.707734 13.244C-0.276766 12.6042 0.242067 10.9322 1.41907 10.9707H4.34323L5.0234 8.3655C5.3314 7.0125 7.39573 7.01434 7.70373 8.3655L8.3839 10.9707H11.2897C12.4631 10.9322 12.9801 12.5932 11.9992 13.233L9.76073 14.7968L10.6334 17.4497L10.6352 17.4515ZM43.4647 13.2348L41.2262 14.7987L42.0989 17.4515C42.4949 18.5313 41.1401 19.5378 40.2197 18.8503L37.8199 17.1783L35.4274 18.8503C34.5144 19.536 33.1706 18.5442 33.5537 17.4698L34.4062 14.8005L32.1714 13.244C31.1869 12.6042 31.7057 10.9322 32.8827 10.9707H35.8069L36.4871 8.3655C36.7951 7.0125 38.8594 7.01434 39.1674 8.3655L39.8476 10.9707H42.7534C43.9267 10.9322 44.4437 12.5932 43.4629 13.233L43.4647 13.2348ZM15.8547 4.61084C15.9776 4.04617 16.4781 3.63917 17.0574 3.641H19.9816L20.6617 1.03584C20.9697 -0.317163 23.0341 -0.31533 23.3421 1.03584L24.0222 3.641H26.9281C28.1014 3.6025 28.6184 5.2635 27.6376 5.90334L25.3991 7.46717L26.2717 10.12C26.6677 11.1998 25.3111 12.2063 24.3926 11.5188L21.9927 9.84684L19.6002 11.5188C18.6872 12.2045 17.3416 11.2145 17.7266 10.1383L18.5791 7.469L16.3442 5.9125C15.9262 5.621 15.7337 5.104 15.8547 4.61084Z" fill="url(#paint0_linear_394_112)"/>
</g>
<defs>
<linearGradient id="paint0_linear_394_112" x1="22.0843" y1="0.0217743" x2="22.0843" y2="44" gradientUnits="userSpaceOnUse">
<stop stop-color="#2891EE"/>
<stop offset="0.480021" stop-color="#1E70B8"/>
<stop offset="1" stop-color="#0061B6"/>
</linearGradient>
<clipPath id="clip0_394_112">
<rect width="44" height="44" fill="white"/>
</clipPath>
</defs>
</svg>
