<svg width="44" height="44" viewBox="0 0 44 44" fill="none" xmlns="http://www.w3.org/2000/svg">
<path fill-rule="evenodd" clip-rule="evenodd" d="M27.2613 3.09248C23.3938 3.58501 20.0591 5.91481 18.2639 9.37881L17.8808 10.1178L23.5326 10.1668C29.0299 10.2145 29.2012 10.2214 29.7942 10.4197C31.5097 10.993 32.7836 12.2593 33.3143 13.9189L33.5467 14.6456V20.3298V26.0139L33.7578 25.9491C33.874 25.9134 34.1256 25.8058 34.3169 25.7099C34.5084 25.614 34.771 25.5356 34.9004 25.5356C35.0299 25.5356 36.583 25.8941 38.3518 26.3322C40.6327 26.8973 41.6569 27.1127 41.8746 27.0729C42.5443 26.9506 43.1064 26.1523 42.9829 25.4987C42.9512 25.3313 42.2506 24.13 41.4257 22.829C40.6009 21.5281 39.926 20.3787 39.926 20.2747C39.926 20.1708 40.0775 19.6666 40.2625 19.1542C40.9855 17.1526 41.2014 15.2464 40.9196 13.3537C40.3486 9.5179 38.3529 6.52304 35.1189 4.6486C32.8733 3.34699 29.8949 2.75711 27.2613 3.09248ZM3.88777 11.8274C2.71868 12.1303 1.72052 13.0109 1.25868 14.1468L1.04075 14.6826L1.01111 21.6695C0.979493 29.1126 0.986529 29.2535 1.43514 30.136C2.05299 31.3516 3.50577 32.243 4.86914 32.243C5.38971 32.243 5.80989 32.4735 6.04433 32.8878C6.24284 33.2384 6.24734 33.3275 6.24734 36.8777C6.24734 40.4102 6.25259 40.5156 6.44181 40.7544C6.58534 40.9357 6.72165 40.9998 6.96322 40.9998C7.3775 40.9998 7.28115 41.0942 11.3835 36.668C13.8313 34.0268 14.7927 33.052 15.1699 32.8291C16.1592 32.2444 16.1783 32.243 22.7114 32.243C27.6878 32.243 28.7156 32.2206 29.1732 32.1022C30.2852 31.8146 31.1634 31.0907 31.6907 30.0273L31.9988 29.4055V21.949V14.4924L31.6954 13.8805C31.1558 12.7919 30.0718 11.9771 28.8599 11.7489C28.5405 11.6887 24.0779 11.6569 16.4367 11.6604C5.42939 11.6653 4.46378 11.6781 3.88777 11.8274ZM5.69131 16.4652C5.43558 16.788 5.44552 17.0817 5.72321 17.4023L5.94967 17.6637L16.3475 17.6897C22.0663 17.7039 26.8414 17.6924 26.9588 17.6639C27.5122 17.5302 27.7444 16.7926 27.3551 16.406C27.1697 16.2219 27.0424 16.2197 16.5266 16.2197H5.88569L5.69131 16.4652ZM5.69131 21.4957C5.42582 21.8308 5.44355 22.1928 5.73888 22.4684L5.98101 22.6942L16.4243 22.7187C23.2556 22.7347 26.9533 22.7108 27.1155 22.6495C27.618 22.4598 27.7131 21.5835 27.2576 21.3415C27.1485 21.2835 23.2208 21.2503 16.4858 21.2503H5.88569L5.69131 21.4957ZM5.69131 26.5263C5.42582 26.8614 5.44355 27.2234 5.73888 27.499L5.98101 27.7248L16.4243 27.7493C23.2556 27.7653 26.9533 27.7414 27.1155 27.6801C27.618 27.4904 27.7131 26.614 27.2576 26.372C27.1485 26.3141 23.2208 26.2808 16.4858 26.2808H5.88569L5.69131 26.5263Z" fill="url(#paint0_linear_63_4777)"/>
<defs>
<linearGradient id="paint0_linear_63_4777" x1="22" y1="3" x2="22" y2="41" gradientUnits="userSpaceOnUse">
<stop stop-color="#2891EE"/>
<stop offset="0.480021" stop-color="#1E70B8"/>
<stop offset="1" stop-color="#0061B6"/>
</linearGradient>
</defs>
</svg>
