<svg width="44" height="44" viewBox="0 0 44 44" fill="none" xmlns="http://www.w3.org/2000/svg">
<g clip-path="url(#clip0_394_96)">
<path d="M14.6695 24.442C12.904 22.6252 11.8113 20.1502 11.8113 17.4167C11.8113 11.847 16.325 7.33335 21.8947 7.33335C27.4643 7.33335 31.978 11.847 31.978 17.4167C31.978 18.3718 31.8368 19.2922 31.5893 20.1667H27.2737C25.9573 18.634 24.0305 17.6422 21.847 17.6422C18.0025 17.6422 14.8932 20.6543 14.6695 24.442ZM8.34816 15.0425C8.85049 12.122 10.2787 9.46002 12.4933 7.38285C15.2965 4.75568 18.9668 3.45768 22.815 3.69602C30.0622 4.16535 35.729 10.5142 35.6447 18.1152C35.6098 21.2978 32.9442 23.8315 29.7633 23.8315H25.3523C24.905 22.3117 23.5153 21.1934 21.8507 21.1934C19.8248 21.1934 18.184 22.8342 18.184 24.86C18.184 26.8859 19.8248 28.5267 21.8507 28.5267C22.837 28.5267 23.7298 28.1325 24.388 27.4982H29.7633C34.9315 27.4982 39.238 23.3824 39.3113 18.216C39.447 8.64418 32.2567 0.632518 23.0515 0.0385175C18.1675 -0.278649 13.5347 1.38052 9.98716 4.70985C7.23899 7.28568 5.41116 10.6957 4.75299 14.3642C4.55316 15.4789 5.43499 16.5019 6.56616 16.5019C7.43149 16.5019 8.20333 15.8987 8.34816 15.0444V15.0425ZM30.5535 33.781L27.1288 38.6339C26.478 39.6092 25.0462 39.6092 24.3953 38.6339L22.0963 35.1835L19.7973 38.6339C19.1465 39.6092 17.7147 39.6092 17.0638 38.6339L13.6593 33.5262C10.693 35.365 8.39216 38.1609 7.31416 41.6204C7.13999 42.1777 7.24083 42.7845 7.58733 43.2539C7.93383 43.7232 8.48199 44 9.06499 44H34.7317C35.3147 44 35.8628 43.7232 36.2093 43.2539C36.5558 42.7845 36.6567 42.1777 36.4825 41.6204C35.454 38.3222 33.3182 35.6217 30.5535 33.781Z" fill="url(#paint0_linear_394_96)"/>
</g>
<defs>
<linearGradient id="paint0_linear_394_96" x1="22.0189" y1="0.000183105" x2="22.0189" y2="44" gradientUnits="userSpaceOnUse">
<stop stop-color="#2891EE"/>
<stop offset="0.480021" stop-color="#1E70B8"/>
<stop offset="1" stop-color="#0061B6"/>
</linearGradient>
<clipPath id="clip0_394_96">
<rect width="44" height="44" fill="white"/>
</clipPath>
</defs>
</svg>
