<svg width="44" height="44" viewBox="0 0 44 44" fill="none" xmlns="http://www.w3.org/2000/svg">
<g clip-path="url(#clip0_162_2)">
<path d="M0 16.5V33C0.00291107 35.4302 0.969617 37.7601 2.68807 39.4786C4.40652 41.197 6.73641 42.1637 9.16667 42.1666H34.8333C37.2636 42.1637 39.5935 41.197 41.3119 39.4786C43.0304 37.7601 43.9971 35.4302 44 33V16.5H0ZM25.6667 34.8333H11C10.5138 34.8333 10.0475 34.6402 9.70364 34.2963C9.35982 33.9525 9.16667 33.4862 9.16667 33C9.16667 32.5138 9.35982 32.0474 9.70364 31.7036C10.0475 31.3598 10.5138 31.1666 11 31.1666H25.6667C26.1529 31.1666 26.6192 31.3598 26.963 31.7036C27.3068 32.0474 27.5 32.5138 27.5 33C27.5 33.4862 27.3068 33.9525 26.963 34.2963C26.6192 34.6402 26.1529 34.8333 25.6667 34.8333ZM33 27.5H11C10.5138 27.5 10.0475 27.3068 9.70364 26.963C9.35982 26.6192 9.16667 26.1529 9.16667 25.6666C9.16667 25.1804 9.35982 24.7141 9.70364 24.3703C10.0475 24.0265 10.5138 23.8333 11 23.8333H33C33.4862 23.8333 33.9525 24.0265 34.2964 24.3703C34.6402 24.7141 34.8333 25.1804 34.8333 25.6666C34.8333 26.1529 34.6402 26.6192 34.2964 26.963C33.9525 27.3068 33.4862 27.5 33 27.5ZM44 12.8333V11C43.9971 8.56972 43.0304 6.23984 41.3119 4.52138C39.5935 2.80293 37.2636 1.83622 34.8333 1.83331H9.16667C6.73641 1.83622 4.40652 2.80293 2.68807 4.52138C0.969617 6.23984 0.00291107 8.56972 0 11L0 12.8333H44ZM18.3333 5.49998C18.6959 5.49998 19.0504 5.6075 19.3519 5.80895C19.6534 6.0104 19.8884 6.29673 20.0271 6.63173C20.1659 6.96672 20.2022 7.33535 20.1314 7.69098C20.0607 8.04661 19.8861 8.37328 19.6297 8.62968C19.3733 8.88607 19.0466 9.06068 18.691 9.13142C18.3354 9.20216 17.9667 9.16585 17.6317 9.02709C17.2967 8.88833 17.0104 8.65335 16.809 8.35186C16.6075 8.05037 16.5 7.69591 16.5 7.33331C16.5 6.84708 16.6932 6.38077 17.037 6.03695C17.3808 5.69313 17.8471 5.49998 18.3333 5.49998ZM12.8333 5.49998C13.1959 5.49998 13.5504 5.6075 13.8519 5.80895C14.1534 6.0104 14.3884 6.29673 14.5271 6.63173C14.6659 6.96672 14.7022 7.33535 14.6314 7.69098C14.5607 8.04661 14.3861 8.37328 14.1297 8.62968C13.8733 8.88607 13.5466 9.06068 13.191 9.13142C12.8354 9.20216 12.4667 9.16585 12.1317 9.02709C11.7967 8.88833 11.5104 8.65335 11.309 8.35186C11.1075 8.05037 11 7.69591 11 7.33331C11 6.84708 11.1932 6.38077 11.537 6.03695C11.8808 5.69313 12.3471 5.49998 12.8333 5.49998ZM7.33333 5.49998C7.69593 5.49998 8.05039 5.6075 8.35188 5.80895C8.65337 6.0104 8.88835 6.29673 9.02711 6.63173C9.16587 6.96672 9.20218 7.33535 9.13144 7.69098C9.0607 8.04661 8.88609 8.37328 8.6297 8.62968C8.3733 8.88607 8.04663 9.06068 7.691 9.13142C7.33537 9.20216 6.96675 9.16585 6.63175 9.02709C6.29675 8.88833 6.01042 8.65335 5.80897 8.35186C5.60752 8.05037 5.5 7.69591 5.5 7.33331C5.5 6.84708 5.69315 6.38077 6.03697 6.03695C6.38079 5.69313 6.8471 5.49998 7.33333 5.49998Z" fill="url(#paint0_linear_162_2)"/>
</g>
<defs>
<linearGradient id="paint0_linear_162_2" x1="22" y1="1.83331" x2="22" y2="42.1666" gradientUnits="userSpaceOnUse">
<stop stop-color="#2891EE"/>
<stop offset="0.480021" stop-color="#1E70B8"/>
<stop offset="1" stop-color="#0061B6"/>
</linearGradient>
<clipPath id="clip0_162_2">
<rect width="44" height="44" fill="white"/>
</clipPath>
</defs>
</svg>
