<svg width="24" height="24" viewBox="0 0 24 24" fill="none" xmlns="http://www.w3.org/2000/svg">
<path d="M12 1.5C14.785 1.5 17.4559 2.60633 19.4252 4.5756C21.3944 6.54487 22.5008 9.21578 22.5008 12.0007C22.5008 14.7857 21.3944 17.4566 19.4252 19.4259C17.4559 21.3952 14.785 22.5015 12 22.5015C9.21505 22.5015 6.54414 21.3952 4.57487 19.4259C2.60559 17.4566 1.49927 14.7857 1.49927 12.0007C1.49927 9.21578 2.60559 6.54487 4.57487 4.5756C6.54414 2.60633 9.21505 1.5 12 1.5ZM13.575 7.947C14.355 7.947 14.988 7.4055 14.988 6.603C14.988 5.8005 14.3535 5.259 13.575 5.259C12.795 5.259 12.165 5.8005 12.165 6.603C12.165 7.4055 12.795 7.947 13.575 7.947ZM13.8495 16.3875C13.8495 16.227 13.905 15.81 13.8735 15.573L12.6405 16.992C12.3855 17.2605 12.066 17.4465 11.916 17.397C11.848 17.372 11.7911 17.3235 11.7556 17.2602C11.7201 17.197 11.7084 17.1231 11.7225 17.052L13.7775 10.56C13.9455 9.7365 13.4835 8.985 12.504 8.889C11.4705 8.889 9.94952 9.9375 9.02402 11.268C9.02402 11.427 8.99402 11.823 9.02552 12.06L10.257 10.6395C10.512 10.374 10.809 10.1865 10.959 10.2375C11.0329 10.264 11.0935 10.3185 11.1277 10.3891C11.1619 10.4598 11.167 10.5411 11.142 10.6155L9.10502 17.076C8.86952 17.832 9.31502 18.573 10.395 18.741C11.985 18.741 12.924 17.718 13.851 16.3875H13.8495Z" fill="url(#paint0_linear_463_232)" fill-opacity="0.5"/>
<defs>
<linearGradient id="paint0_linear_463_232" x1="12" y1="1.5" x2="12" y2="22.5015" gradientUnits="userSpaceOnUse">
<stop stop-color="#2891EE"/>
<stop offset="0.480021" stop-color="#1E70B8"/>
<stop offset="1" stop-color="#0061B6"/>
</linearGradient>
</defs>
</svg>
