<svg width="96" height="96" viewBox="0 0 96 96" fill="none" xmlns="http://www.w3.org/2000/svg">
<path d="M38 62.3357V33.6637C38.0006 33.3049 38.0977 32.953 38.281 32.6446C38.4644 32.3363 38.7274 32.083 39.0423 31.9112C39.3572 31.7394 39.7126 31.6555 40.0711 31.6683C40.4296 31.681 40.7781 31.7899 41.08 31.9837L63.384 46.3157C63.6664 46.4966 63.8988 46.7457 64.0597 47.04C64.2207 47.3342 64.305 47.6643 64.305 47.9997C64.305 48.3351 64.2207 48.6651 64.0597 48.9594C63.8988 49.2536 63.6664 49.5027 63.384 49.6837L41.08 64.0197C40.7781 64.2134 40.4296 64.3223 40.0711 64.3351C39.7126 64.3478 39.3572 64.2639 39.0423 64.0921C38.7274 63.9203 38.4644 63.667 38.281 63.3587C38.0977 63.0504 38.0006 62.6984 38 62.3397V62.3357Z" fill="white"/>
<path d="M4 48C4 23.7 23.7 4 48 4C72.3 4 92 23.7 92 48C92 72.3 72.3 92 48 92C23.7 92 4 72.3 4 48ZM48 10C37.9218 10 28.2563 14.0036 21.1299 21.1299C14.0036 28.2563 10 37.9218 10 48C10 58.0782 14.0036 67.7437 21.1299 74.8701C28.2563 81.9964 37.9218 86 48 86C58.0782 86 67.7437 81.9964 74.8701 74.8701C81.9964 67.7437 86 58.0782 86 48C86 37.9218 81.9964 28.2563 74.8701 21.1299C67.7437 14.0036 58.0782 10 48 10Z" fill="white"/>
</svg>
