<svg width="44" height="44" viewBox="0 0 44 44" fill="none" xmlns="http://www.w3.org/2000/svg">
<rect x="0.5" y="0.5" width="43" height="43" rx="21.5" fill="white" stroke="url(#paint0_linear_2193_183)"/>
<g clip-path="url(#clip0_2193_183)">
<path d="M20.9796 14.086C22.3034 14.0848 23.5977 14.4763 24.699 15.2108C25.8002 15.9454 26.6588 16.99 27.1663 18.2127C27.6737 19.4353 27.8071 20.781 27.5495 22.0794C27.292 23.3779 26.6552 24.5708 25.7196 25.5073C24.784 26.4437 23.5917 27.0816 22.2934 27.3403C20.9952 27.599 19.6494 27.4669 18.4263 26.9606C17.2032 26.4543 16.1578 25.5966 15.4222 24.496C14.6867 23.3955 14.294 22.1014 14.294 20.7777C14.3021 19.0065 15.0088 17.31 16.2607 16.057C17.5126 14.804 19.2084 14.0957 20.9796 14.086ZM20.9796 12.8333C19.4083 12.8333 17.8724 13.2992 16.5659 14.1721C15.2595 15.0451 14.2412 16.2858 13.6399 17.7375C13.0386 19.1891 12.8813 20.7865 13.1878 22.3276C13.4943 23.8687 14.251 25.2842 15.362 26.3953C16.4731 27.5063 17.8886 28.263 19.4297 28.5695C20.9708 28.876 22.5682 28.7187 24.0198 28.1174C25.4715 27.5161 26.7122 26.4979 27.5852 25.1914C28.4581 23.8849 28.9241 22.349 28.9241 20.7777C28.9241 18.6707 28.087 16.65 26.5972 15.1601C25.1073 13.6703 23.0866 12.8333 20.9796 12.8333Z" fill="url(#paint1_linear_2193_183)"/>
<path d="M32.3892 31.3438L27.8854 26.8093L27.0176 27.671L31.5215 32.2054C31.578 32.2624 31.6453 32.3077 31.7194 32.3387C31.7934 32.3697 31.8729 32.3858 31.9532 32.3861C32.0335 32.3863 32.1131 32.3708 32.1874 32.3403C32.2616 32.3099 32.3292 32.2651 32.3862 32.2085C32.4432 32.1519 32.4884 32.0847 32.5194 32.0106C32.5504 31.9365 32.5665 31.8571 32.5668 31.7768C32.5671 31.6965 32.5516 31.6169 32.5211 31.5426C32.4906 31.4683 32.4458 31.4007 32.3892 31.3438Z" fill="url(#paint2_linear_2193_183)"/>
</g>
<defs>
<linearGradient id="paint0_linear_2193_183" x1="22" y1="0" x2="22" y2="44" gradientUnits="userSpaceOnUse">
<stop stop-color="#2891EE"/>
<stop offset="0.480021" stop-color="#1E70B8"/>
<stop offset="1" stop-color="#0061B6"/>
</linearGradient>
<linearGradient id="paint1_linear_2193_183" x1="20.9796" y1="12.8333" x2="20.9796" y2="28.7221" gradientUnits="userSpaceOnUse">
<stop stop-color="#2891EE"/>
<stop offset="0.480021" stop-color="#1E70B8"/>
<stop offset="1" stop-color="#0061B6"/>
</linearGradient>
<linearGradient id="paint2_linear_2193_183" x1="29.7922" y1="26.8093" x2="29.7922" y2="32.3861" gradientUnits="userSpaceOnUse">
<stop stop-color="#2891EE"/>
<stop offset="0.480021" stop-color="#1E70B8"/>
<stop offset="1" stop-color="#0061B6"/>
</linearGradient>
<clipPath id="clip0_2193_183">
<rect width="22" height="22" fill="white" transform="translate(11 11)"/>
</clipPath>
</defs>
</svg>
