<svg width="24" height="24" viewBox="0 0 24 24" fill="none" xmlns="http://www.w3.org/2000/svg">
<path d="M11.4568 17.073L3.49181 8.71351C3.35884 8.57403 3.28467 8.38872 3.28467 8.19601C3.28467 8.00331 3.35884 7.818 3.49181 7.67851L3.50081 7.66951C3.56527 7.60166 3.64286 7.54763 3.72886 7.51071C3.81486 7.47379 3.90747 7.45475 4.00106 7.45475C4.09465 7.45475 4.18726 7.47379 4.27326 7.51071C4.35926 7.54763 4.43685 7.60166 4.50131 7.66951L12.0013 15.5415L19.4983 7.66951C19.5628 7.60166 19.6404 7.54763 19.7264 7.51071C19.8124 7.47379 19.905 7.45475 19.9986 7.45475C20.0921 7.45475 20.1848 7.47379 20.2708 7.51071C20.3568 7.54763 20.4343 7.60166 20.4988 7.66951L20.5078 7.67851C20.6408 7.818 20.715 8.00331 20.715 8.19601C20.715 8.38872 20.6408 8.57403 20.5078 8.71351L12.5428 17.073C12.4728 17.1465 12.3885 17.2051 12.2952 17.2451C12.2018 17.285 12.1014 17.3057 11.9998 17.3057C11.8983 17.3057 11.7978 17.285 11.7044 17.2451C11.6111 17.2051 11.5269 17.1465 11.4568 17.073Z" fill="#979797"/>
</svg>
