<svg width="43" height="43" viewBox="0 0 43 43" fill="none" xmlns="http://www.w3.org/2000/svg">
<rect x="0.5" y="0.5" width="42" height="42" rx="21" fill="white"/>
<rect x="0.5" y="0.5" width="42" height="42" rx="21" stroke="url(#paint0_linear_268_987)"/>
<path d="M24.5 15.5L27.5 18.5M22.5 29.5H30.5M14.5 25.5L13.5 29.5L17.5 28.5L29.086 16.914C29.4609 16.5389 29.6716 16.0303 29.6716 15.5C29.6716 14.9697 29.4609 14.4611 29.086 14.086L28.914 13.914C28.5389 13.5391 28.0303 13.3284 27.5 13.3284C26.9697 13.3284 26.4611 13.5391 26.086 13.914L14.5 25.5Z" stroke="url(#paint1_linear_268_987)" stroke-linecap="round" stroke-linejoin="round"/>
<defs>
<linearGradient id="paint0_linear_268_987" x1="21.5" y1="0" x2="21.5" y2="43" gradientUnits="userSpaceOnUse">
<stop stop-color="#70EA8F"/>
<stop offset="1" stop-color="#469C5C"/>
</linearGradient>
<linearGradient id="paint1_linear_268_987" x1="22" y1="13.3284" x2="22" y2="29.5" gradientUnits="userSpaceOnUse">
<stop stop-color="#70EA8F"/>
<stop offset="1" stop-color="#469C5C"/>
</linearGradient>
</defs>
</svg>
